<svg id="svg" version="1.1" xmlns="http://www.w3.org/2000/svg" xmlns:xlink="http://www.w3.org/1999/xlink" width="400" height="286.19047619047615" viewBox="0, 0, 400,286.19047619047615"><g id="svgg"><path id="path0" d="M0.000 143.164 L 0.000 286.328 200.000 286.328 L 400.000 286.328 400.000 143.164 L 400.000 0.000 200.000 0.000 L 0.000 0.000 0.000 143.164 M110.357 28.151 C 110.525 29.275,111.203 30.400,111.880 30.679 C 112.458 30.918,115.209 35.342,116.114 37.487 C 119.123 44.623,118.159 53.474,114.029 56.624 C 113.021 57.393,111.668 57.154,111.668 56.206 C 111.668 55.650,110.954 55.450,110.272 55.815 C 109.746 56.096,109.671 56.023,109.489 55.049 C 109.378 54.457,108.857 53.346,108.330 52.581 C 107.804 51.815,107.374 50.977,107.375 50.719 C 107.379 50.081,106.499 46.356,106.206 45.768 C 105.381 44.110,105.846 36.812,106.943 34.216 C 107.674 32.486,108.518 29.305,108.518 28.280 C 108.518 27.702,108.674 26.887,108.864 26.469 L 109.210 25.711 109.689 26.302 C 109.952 26.628,110.253 27.460,110.357 28.151 M78.582 59.485 C 78.480 61.492,78.224 63.844,78.014 64.710 C 77.804 65.576,77.704 66.643,77.791 67.080 C 78.017 68.205,77.371 70.327,76.276 72.060 C 75.366 73.501,74.816 74.996,74.664 76.450 C 74.622 76.843,74.410 77.165,74.192 77.165 C 73.269 77.165,71.228 66.542,71.675 64.067 C 71.754 63.634,71.909 62.741,72.020 62.082 C 72.519 59.131,74.908 56.464,76.904 56.629 C 77.251 56.658,77.692 56.491,77.886 56.258 C 78.646 55.342,78.765 55.892,78.582 59.485 M239.212 57.629 C 241.987 59.201,243.172 65.547,240.599 65.055 C 239.436 64.833,236.706 61.969,236.281 60.525 C 235.325 57.276,236.514 56.101,239.212 57.629 M216.304 58.153 C 216.865 58.483,217.323 58.913,217.323 59.107 C 217.323 59.819,211.091 63.689,208.755 64.427 C 207.744 64.747,206.751 65.146,206.549 65.313 C 205.527 66.161,205.313 64.853,206.299 63.789 C 206.693 63.365,207.015 62.896,207.015 62.748 C 207.015 62.600,207.930 61.563,209.049 60.445 C 211.837 57.657,214.199 56.911,216.304 58.153 M56.556 70.073 C 56.225 71.840,54.706 74.798,53.480 76.067 L 52.327 77.259 54.647 77.100 C 57.120 76.931,57.774 77.287,57.070 78.421 C 55.905 80.299,51.262 80.521,51.254 78.699 C 51.252 78.135,50.661 77.865,49.877 78.070 C 48.471 78.438,48.750 74.531,50.272 72.537 C 50.811 71.830,51.253 71.163,51.253 71.055 C 51.253 70.787,53.872 69.562,55.034 69.287 C 56.734 68.884,56.775 68.906,56.556 70.073 M106.958 76.759 C 107.063 76.929,106.876 77.259,106.543 77.492 C 105.185 78.443,104.976 79.516,106.108 79.728 C 107.857 80.056,107.769 81.615,105.901 83.392 C 104.561 84.667,104.225 84.578,104.219 82.947 C 104.214 81.464,103.836 80.771,103.253 81.174 C 100.239 83.258,99.317 83.847,98.216 84.393 C 96.439 85.274,96.269 85.223,96.049 83.755 C 95.556 80.473,97.725 78.150,102.362 76.992 C 104.676 76.414,106.682 76.313,106.958 76.759 M263.930 81.849 C 264.792 82.423,265.772 83.049,266.106 83.240 C 266.441 83.432,266.714 83.754,266.714 83.956 C 266.714 84.685,259.748 86.767,257.981 86.565 C 255.281 86.257,253.503 85.802,253.031 85.299 C 252.749 84.999,252.331 84.753,252.101 84.753 C 251.519 84.753,251.573 84.521,252.408 83.426 C 254.714 80.402,260.553 79.603,263.930 81.849 M254.891 86.829 C 257.270 88.455,259.308 91.272,258.610 91.970 C 258.099 92.480,254.657 91.258,253.654 90.210 C 251.582 88.047,252.600 85.264,254.891 86.829 M232.471 88.376 C 234.230 89.675,235.361 90.856,235.361 91.395 C 235.361 91.679,235.490 91.911,235.648 91.911 C 235.805 91.911,235.932 92.072,235.930 92.269 C 235.905 94.290,231.298 92.865,230.049 90.450 C 228.948 88.320,230.544 86.953,232.471 88.376 M46.259 91.939 C 46.562 92.428,45.607 93.252,45.204 92.849 C 45.024 92.669,44.955 92.320,45.050 92.074 C 45.248 91.557,45.973 91.476,46.259 91.939 M295.698 93.208 C 296.282 93.810,296.940 94.202,297.365 94.202 C 298.881 94.202,297.836 95.428,295.019 96.954 C 294.680 97.137,293.583 97.978,292.580 98.822 C 291.577 99.667,289.816 100.868,288.665 101.491 C 287.515 102.114,286.293 102.902,285.950 103.241 C 284.768 104.409,280.668 105.941,278.726 105.941 C 277.811 105.941,276.736 106.446,274.610 107.874 C 272.713 109.147,272.986 108.122,275.482 104.602 C 278.478 100.374,280.834 97.545,282.238 96.489 C 282.834 96.040,283.708 95.360,284.180 94.977 C 288.019 91.864,293.566 91.013,295.698 93.208 M139.366 93.971 C 143.253 94.944,145.454 98.504,142.822 99.560 C 139.318 100.965,135.613 100.579,131.950 98.427 C 131.215 97.995,130.281 97.515,129.874 97.361 C 128.903 96.991,128.928 96.268,129.921 96.023 C 130.354 95.916,131.160 95.547,131.711 95.203 C 134.064 93.736,136.719 93.308,139.366 93.971 M79.717 101.045 C 81.084 101.725,82.157 102.421,82.100 102.590 C 82.000 102.889,79.846 104.211,78.507 104.794 C 75.132 106.263,68.569 102.443,71.222 100.553 C 73.112 99.207,76.409 99.398,79.717 101.045 M353.901 100.036 C 353.901 100.252,353.436 100.928,352.866 101.539 C 351.522 102.980,351.084 104.046,350.878 106.376 C 350.785 107.423,350.542 108.754,350.338 109.333 C 350.133 109.913,349.873 110.965,349.759 111.672 C 349.645 112.378,349.328 113.347,349.053 113.824 C 348.779 114.301,348.461 115.064,348.347 115.521 C 348.232 115.977,347.696 117.017,347.154 117.832 C 346.613 118.648,346.170 119.399,346.170 119.502 C 346.170 119.732,345.101 120.989,343.021 123.202 C 336.029 130.642,324.864 133.215,325.668 127.201 C 325.820 126.060,325.787 125.984,325.137 125.984 C 324.084 125.984,324.028 125.542,324.980 124.741 C 325.602 124.218,325.928 123.599,326.162 122.496 C 326.511 120.850,327.409 118.996,328.643 117.374 C 329.070 116.812,330.033 115.523,330.781 114.511 C 332.758 111.837,335.371 109.242,336.782 108.553 C 337.457 108.223,338.655 107.462,339.442 106.862 C 341.030 105.653,342.094 105.052,343.593 104.519 C 346.356 103.536,346.984 103.293,348.167 102.747 C 348.872 102.422,349.721 101.893,350.056 101.571 C 351.432 100.246,353.901 99.260,353.901 100.036 M216.990 107.121 C 217.173 107.914,217.323 108.931,217.323 109.382 C 217.323 109.833,217.452 110.282,217.609 110.379 C 219.116 111.311,216.637 118.253,214.798 118.253 C 214.480 118.253,214.016 118.332,213.767 118.427 C 212.585 118.881,213.338 111.163,214.744 108.406 C 215.218 107.479,215.605 106.502,215.605 106.235 C 215.605 104.760,216.591 105.391,216.990 107.121 M181.164 107.829 C 183.296 108.256,183.316 110.311,181.193 110.941 C 178.766 111.662,177.848 111.752,176.874 111.366 C 174.884 110.577,174.888 110.163,176.895 108.880 C 178.865 107.622,179.431 107.482,181.164 107.829 M111.187 120.043 C 111.271 120.555,111.427 121.314,111.532 121.729 C 111.775 122.692,110.467 125.597,109.077 127.181 C 108.325 128.038,104.781 129.478,102.076 130.025 C 97.442 130.963,95.858 130.607,98.031 129.118 C 99.998 127.771,100.199 126.049,98.348 126.396 C 95.959 126.844,96.358 123.316,98.913 121.403 C 100.225 120.421,100.630 120.486,100.717 121.689 C 100.935 124.700,101.085 125.204,101.619 124.721 C 101.895 124.471,102.228 124.266,102.359 124.266 C 102.490 124.266,103.308 123.729,104.177 123.073 C 105.046 122.417,106.758 121.384,107.983 120.778 C 109.207 120.171,110.287 119.549,110.382 119.394 C 110.713 118.858,111.033 119.116,111.187 120.043 M247.674 124.696 C 247.870 124.932,248.228 125.125,248.469 125.125 C 248.999 125.125,250.599 126.295,251.971 127.686 C 253.181 128.912,254.248 131.284,254.555 133.429 C 254.679 134.295,254.937 135.432,255.128 135.956 C 255.616 137.292,255.203 137.565,253.756 136.866 C 253.103 136.550,252.425 136.292,252.250 136.292 C 251.748 136.292,248.819 134.892,248.814 134.650 C 248.812 134.529,248.408 133.980,247.916 133.429 C 245.983 131.260,245.355 127.825,246.440 125.365 C 246.974 124.154,247.146 124.061,247.674 124.696 M168.576 127.029 C 168.930 127.417,169.220 127.985,169.220 128.291 C 169.220 128.958,169.899 129.013,171.004 128.436 C 172.035 127.898,172.177 128.170,172.174 130.685 C 172.169 135.040,168.001 139.728,164.134 139.728 C 163.820 139.728,163.403 139.921,163.207 140.157 C 163.011 140.394,162.681 140.587,162.473 140.587 C 161.898 140.587,161.684 140.040,162.075 139.569 C 162.267 139.337,162.769 138.151,163.190 136.933 C 164.389 133.464,164.958 132.618,167.623 130.341 C 169.018 129.150,168.870 129.028,166.521 129.437 C 163.468 129.969,160.861 129.499,161.586 128.548 C 163.291 126.308,167.152 125.469,168.576 127.029 M140.531 131.639 C 142.738 140.101,143.379 146.816,142.258 149.749 C 140.724 153.766,138.338 156.335,136.141 156.335 C 135.418 156.335,134.788 156.507,134.577 156.761 C 134.074 157.367,133.635 156.979,133.851 156.120 C 133.951 155.721,134.086 153.486,134.151 151.153 C 134.233 148.225,134.405 146.587,134.708 145.862 C 134.949 145.284,135.149 143.958,135.153 142.914 C 135.159 140.886,136.030 137.925,137.120 136.226 C 138.291 134.399,138.857 132.984,138.867 131.854 C 138.894 128.729,139.743 128.620,140.531 131.639 M200.335 132.119 C 204.568 134.090,201.444 137.326,196.606 135.982 C 195.347 135.633,192.919 133.543,193.045 132.917 C 193.323 131.527,197.971 131.019,200.335 132.119 M293.708 133.716 C 294.223 134.031,294.786 134.288,294.958 134.288 C 295.952 134.288,301.503 139.208,301.503 140.089 C 301.503 140.456,301.363 140.594,301.094 140.491 C 300.172 140.138,298.598 139.963,297.904 140.137 L 297.165 140.323 297.759 141.330 C 298.486 142.562,298.510 143.220,297.848 143.819 C 297.289 144.325,294.954 144.938,294.546 144.686 C 294.404 144.598,293.624 144.434,292.813 144.321 L 291.339 144.116 293.277 142.241 C 295.217 140.364,295.302 140.018,293.821 140.013 C 293.558 140.012,293.013 139.839,292.610 139.628 C 292.207 139.418,291.338 139.160,290.678 139.054 C 290.019 138.949,288.754 138.542,287.868 138.150 C 286.982 137.758,286.029 137.437,285.751 137.437 C 285.473 137.437,284.942 137.182,284.570 136.870 L 283.894 136.302 284.538 136.121 C 284.893 136.021,285.183 135.762,285.183 135.546 C 285.183 133.616,291.367 132.289,293.708 133.716 M90.551 156.161 C 90.827 156.370,91.052 156.696,91.052 156.885 C 91.052 157.073,91.182 157.148,91.341 157.050 C 91.499 156.952,91.705 157.070,91.799 157.314 C 91.926 157.645,92.100 157.686,92.494 157.475 C 93.568 156.900,93.956 157.114,93.758 158.171 C 93.600 159.014,93.738 159.370,94.759 160.752 C 95.411 161.634,96.140 163.030,96.379 163.855 C 96.619 164.680,96.936 165.750,97.083 166.234 C 97.231 166.717,97.351 167.432,97.351 167.823 C 97.351 168.213,97.471 168.655,97.617 168.805 C 98.147 169.347,98.619 175.879,98.258 177.675 C 98.074 178.589,97.924 180.135,97.924 181.110 C 97.924 182.824,97.379 184.905,95.940 188.690 C 95.611 189.556,95.273 191.102,95.190 192.126 C 95.001 194.439,94.512 196.135,94.032 196.135 C 93.654 196.135,93.520 195.817,93.189 194.130 C 92.855 192.432,92.017 190.894,90.693 189.549 C 89.546 188.385,86.695 184.182,86.254 183.006 C 86.156 182.746,85.718 181.923,85.280 181.175 C 83.173 177.581,82.342 167.096,83.837 162.958 C 85.776 157.592,88.630 154.702,90.551 156.161 M146.385 199.353 C 147.133 199.532,147.745 199.820,147.745 199.992 C 147.745 200.450,144.624 203.392,143.406 204.081 C 141.252 205.300,136.634 205.169,136.974 203.899 C 137.042 203.644,137.177 203.080,137.274 202.644 C 137.933 199.686,141.856 198.269,146.385 199.353 M175.007 212.138 C 177.225 212.981,178.193 215.169,176.650 215.851 C 175.572 216.329,175.678 216.744,177.043 217.397 C 179.227 218.441,177.482 219.335,173.304 219.315 C 169.466 219.295,167.069 218.123,166.077 215.779 C 165.165 213.626,165.519 212.530,166.979 212.986 C 167.503 213.149,168.704 213.501,169.649 213.768 C 170.594 214.034,171.496 214.330,171.654 214.425 C 173.271 215.402,174.683 215.286,174.114 214.223 C 173.731 213.508,173.700 211.883,174.069 211.883 C 174.216 211.883,174.638 211.997,175.007 212.138 M115.098 218.356 C 117.331 219.249,115.975 220.793,112.934 220.820 C 110.566 220.841,109.877 219.946,111.225 218.598 C 112.064 217.760,113.399 217.676,115.098 218.356 M86.781 225.364 C 87.884 226.493,89.621 229.965,89.621 231.043 C 89.621 231.510,89.763 231.980,89.938 232.088 C 90.437 232.396,89.625 232.775,88.454 232.780 C 87.118 232.786,86.431 232.036,85.503 229.561 C 84.575 227.088,84.721 222.326,85.672 224.026 C 85.819 224.288,86.318 224.890,86.781 225.364 M147.325 227.099 C 147.437 227.610,148.223 228.756,149.143 229.748 C 151.305 232.081,151.919 232.989,152.307 234.430 C 152.486 235.096,152.979 236.319,153.403 237.148 C 154.376 239.053,154.894 240.484,154.899 241.286 C 154.901 241.631,155.017 241.983,155.155 242.069 C 155.473 242.265,156.416 245.111,156.227 245.300 C 155.883 245.644,153.303 245.571,152.362 245.191 C 149.393 243.992,146.824 239.253,146.490 234.359 C 146.091 228.517,146.065 227.236,146.334 226.734 C 146.753 225.950,147.101 226.079,147.325 227.099 M128.561 229.065 C 130.130 229.512,130.939 230.780,129.655 230.780 C 129.504 230.780,129.186 230.974,128.950 231.210 C 128.662 231.497,127.945 231.639,126.780 231.639 L 125.040 231.639 126.443 232.378 C 128.838 233.639,132.364 237.686,131.826 238.556 C 131.120 239.698,126.023 238.199,124.212 236.316 C 122.548 234.587,121.777 231.371,123.110 231.719 C 123.767 231.891,124.142 231.516,124.419 230.414 C 124.794 228.922,126.318 228.425,128.561 229.065 M191.197 236.435 C 197.557 240.749,199.037 252.537,194.404 261.970 C 193.954 262.886,193.819 263.573,193.917 264.448 C 194.216 267.095,192.992 266.838,191.805 264.005 C 191.392 263.019,190.372 261.180,189.539 259.917 C 188.706 258.655,187.876 257.219,187.694 256.728 C 187.512 256.236,187.194 255.447,186.989 254.975 C 185.710 252.039,185.584 251.381,185.382 246.603 C 185.217 242.707,185.259 241.914,185.686 240.802 C 185.958 240.093,186.162 239.030,186.140 238.440 C 186.096 237.275,186.159 237.217,186.991 237.662 C 187.489 237.929,187.799 237.481,187.473 236.966 C 187.434 236.904,187.647 236.582,187.947 236.251 C 188.689 235.430,189.808 235.494,191.197 236.435 M107.350 239.063 C 108.863 240.021,105.723 243.092,103.232 243.092 C 100.300 243.092,100.529 239.879,103.508 239.231 C 103.822 239.162,104.338 239.052,104.653 238.985 C 105.690 238.766,106.937 238.802,107.350 239.063 " stroke="none" fill="#f5f5f5" fill-rule="evenodd"></path><path id="path1" d="M109.091 29.135 C 109.091 29.632,108.700 31.236,108.223 32.700 C 107.746 34.164,107.233 36.199,107.084 37.223 C 106.494 41.271,106.365 42.866,106.564 43.677 C 106.679 44.143,106.973 45.555,107.219 46.815 C 108.825 55.038,111.124 56.368,113.775 50.608 C 115.214 47.482,115.493 43.968,114.680 39.226 C 114.133 36.039,113.687 35.040,110.968 30.921 C 109.105 28.100,109.091 28.086,109.091 29.135 M75.137 57.773 C 72.719 59.779,71.906 64.257,72.872 70.257 C 73.279 72.787,74.094 75.664,74.139 74.732 C 74.151 74.495,74.605 73.565,75.148 72.664 C 76.366 70.644,77.022 68.508,77.022 66.562 C 77.022 65.748,77.140 64.708,77.285 64.252 C 77.430 63.795,77.616 62.037,77.698 60.344 L 77.849 57.266 76.791 57.272 C 76.210 57.275,75.465 57.501,75.137 57.773 M236.793 58.780 C 236.793 60.673,239.833 64.593,240.826 63.979 C 241.266 63.707,241.106 61.771,240.540 60.525 C 239.477 58.183,236.793 56.933,236.793 58.780 M212.885 58.466 C 210.490 59.291,206.325 63.851,207.965 63.851 C 208.989 63.851,210.512 63.274,211.249 62.607 C 211.609 62.281,212.458 61.687,213.137 61.286 C 216.414 59.353,216.716 59.005,215.624 58.421 C 214.947 58.059,214.022 58.074,212.885 58.466 M53.127 70.801 C 51.019 71.995,49.214 75.133,49.646 76.853 C 50.182 78.991,54.526 74.813,55.497 71.224 C 55.857 69.894,54.999 69.741,53.127 70.801 M101.360 77.971 C 97.850 79.153,95.539 82.088,96.731 83.852 C 97.327 84.735,103.627 80.465,104.800 78.382 L 105.405 77.309 104.313 77.327 C 103.713 77.337,102.384 77.627,101.360 77.971 M53.599 77.940 C 52.418 78.155,52.099 78.323,52.169 78.693 C 52.351 79.654,56.120 79.175,56.120 78.191 C 56.120 77.985,55.325 77.517,55.166 77.629 C 55.140 77.648,54.434 77.787,53.599 77.940 M256.550 81.492 C 252.082 83.185,251.794 84.803,255.814 85.617 C 258.564 86.173,265.140 84.878,265.140 83.779 C 265.140 82.403,258.683 80.683,256.550 81.492 M253.400 87.992 C 253.400 89.398,255.903 91.339,257.716 91.339 C 258.129 91.339,257.369 89.620,256.828 89.330 C 256.542 89.177,256.137 88.887,255.928 88.686 C 254.092 86.919,253.400 86.729,253.400 87.992 M230.494 89.372 C 230.494 90.538,233.720 92.790,234.406 92.103 C 234.764 91.745,234.111 90.803,232.824 89.822 C 231.238 88.612,230.494 88.469,230.494 89.372 M291.416 92.645 C 291.328 92.734,290.762 92.867,290.160 92.942 C 289.558 93.017,288.687 93.266,288.225 93.497 C 287.763 93.727,287.262 93.916,287.112 93.916 C 286.962 93.916,286.029 94.560,285.039 95.347 C 284.050 96.135,283.158 96.779,283.057 96.779 C 282.956 96.779,282.395 97.314,281.809 97.969 C 281.224 98.623,280.260 99.686,279.667 100.331 C 278.194 101.933,275.339 105.928,275.530 106.119 C 275.615 106.204,275.948 106.133,276.270 105.961 C 276.592 105.788,277.859 105.456,279.086 105.223 C 282.213 104.628,283.874 103.931,285.727 102.438 C 286.609 101.727,288.103 100.754,289.048 100.275 C 289.993 99.797,291.430 98.834,292.242 98.135 C 293.054 97.437,294.310 96.518,295.034 96.094 C 296.563 95.198,296.623 94.916,295.521 93.835 C 294.474 92.809,291.977 92.085,291.416 92.645 M133.429 95.148 C 130.339 96.740,130.360 96.664,132.641 97.960 C 135.440 99.550,137.131 99.992,139.540 99.762 C 143.023 99.430,143.881 98.719,142.758 97.099 C 141.058 94.646,136.324 93.655,133.429 95.148 M73.014 100.463 C 71.456 100.857,71.189 101.183,71.667 102.107 C 72.778 104.256,76.652 104.922,79.571 103.468 L 81.088 102.712 79.842 101.945 C 77.281 100.369,75.186 99.914,73.014 100.463 M350.231 102.362 C 349.763 102.756,349.290 103.078,349.179 103.078 C 349.068 103.078,348.571 103.260,348.075 103.483 C 347.579 103.705,346.335 104.239,345.311 104.669 C 341.096 106.442,337.294 108.686,337.294 109.403 C 337.294 109.546,337.004 109.664,336.650 109.665 C 334.996 109.668,327.612 119.026,326.940 121.970 C 326.778 122.682,326.467 123.625,326.249 124.065 C 326.031 124.505,325.987 124.783,326.151 124.681 C 326.315 124.580,326.671 124.696,326.941 124.941 C 327.403 125.359,328.144 125.439,331.473 125.434 C 332.129 125.433,332.749 125.299,332.850 125.135 C 332.951 124.972,333.341 124.839,333.717 124.839 C 334.448 124.839,336.963 123.621,337.437 123.037 C 337.595 122.843,338.110 122.513,338.583 122.304 C 339.648 121.832,339.768 121.728,342.638 118.787 C 343.924 117.470,345.309 116.053,345.716 115.638 C 346.124 115.223,346.457 114.722,346.457 114.525 C 346.457 114.328,346.779 113.869,347.173 113.504 C 347.566 113.139,347.888 112.584,347.888 112.271 C 347.888 111.958,348.017 111.622,348.175 111.525 C 348.332 111.427,348.461 111.021,348.461 110.622 C 348.461 110.223,348.717 109.572,349.030 109.174 C 349.343 108.776,349.521 108.325,349.425 108.171 C 349.330 108.017,349.379 107.613,349.534 107.274 C 349.689 106.935,349.968 106.013,350.154 105.225 C 350.340 104.438,350.742 103.311,351.047 102.720 C 351.692 101.471,351.428 101.355,350.231 102.362 M215.286 108.866 C 214.216 110.958,213.605 117.681,214.484 117.681 C 216.493 117.681,217.615 113.536,216.727 109.394 C 216.319 107.492,216.040 107.390,215.286 108.866 M178.168 109.165 C 176.476 110.015,176.576 110.523,178.434 110.523 C 180.296 110.523,181.818 109.995,181.818 109.350 C 181.818 108.346,179.983 108.253,178.168 109.165 M109.035 121.099 C 108.647 121.404,107.995 121.738,107.587 121.840 C 107.178 121.943,106.351 122.447,105.748 122.961 C 105.146 123.475,104.202 124.123,103.651 124.400 C 102.263 125.099,101.183 126.152,100.042 127.923 C 98.800 129.850,98.784 129.808,100.674 129.572 C 106.521 128.841,110.809 125.771,110.809 122.314 C 110.809 120.496,110.271 120.127,109.035 121.099 M246.861 126.141 C 245.225 129.731,248.582 134.645,253.516 135.882 C 254.291 136.076,254.335 136.043,254.153 135.404 C 254.046 135.026,253.875 134.073,253.774 133.286 C 253.673 132.498,253.355 131.467,253.067 130.995 C 252.779 130.523,252.543 129.939,252.542 129.698 C 252.542 129.456,251.800 128.537,250.895 127.654 C 248.423 125.245,247.437 124.875,246.861 126.141 M164.092 127.421 C 161.918 128.634,162.707 129.455,165.472 128.857 C 166.352 128.667,167.362 128.456,167.717 128.388 C 168.422 128.252,168.554 127.724,168.017 127.187 C 167.498 126.668,165.196 126.805,164.092 127.421 M170.079 129.343 C 169.328 129.641,165.784 132.581,165.784 132.906 C 165.784 133.078,165.496 133.684,165.143 134.254 C 163.978 136.139,163.132 139.155,163.769 139.155 C 165.689 139.155,169.177 136.676,170.548 134.337 C 171.958 131.931,171.656 128.717,170.079 129.343 M139.190 133.682 C 138.843 134.634,138.435 135.491,138.284 135.584 C 138.132 135.678,137.747 136.358,137.427 137.097 C 137.106 137.835,136.703 138.691,136.530 138.998 C 136.357 139.304,136.116 140.915,135.994 142.577 C 135.872 144.238,135.640 146.188,135.477 146.909 C 135.315 147.631,135.106 149.903,135.014 151.958 L 134.846 155.695 135.981 155.710 C 137.284 155.728,139.539 154.233,139.893 153.116 C 140.006 152.760,140.411 151.974,140.793 151.369 C 141.175 150.763,141.418 150.199,141.334 150.114 C 141.249 150.030,141.308 149.721,141.464 149.429 C 141.621 149.136,141.812 147.897,141.888 146.675 C 141.965 145.452,142.056 144.259,142.092 144.023 C 142.154 143.607,141.742 140.625,141.111 136.924 C 140.942 135.934,140.583 134.409,140.313 133.536 L 139.822 131.950 139.190 133.682 M195.848 132.493 C 193.109 132.997,195.741 135.426,199.031 135.431 C 200.260 135.433,201.634 134.490,201.377 133.820 C 200.976 132.775,198.087 132.081,195.848 132.493 M287.929 134.139 C 284.264 135.445,285.102 136.833,290.360 138.167 C 291.240 138.390,292.428 138.768,293.000 139.007 C 294.079 139.458,296.413 139.540,298.640 139.206 L 299.928 139.012 298.926 138.111 C 294.632 134.248,291.152 132.991,287.929 134.139 M90.818 160.405 C 90.159 160.911,89.621 161.533,89.621 161.787 C 89.621 162.040,89.298 162.551,88.905 162.921 C 88.511 163.290,88.189 163.749,88.189 163.940 C 88.189 164.131,87.996 164.656,87.761 165.107 C 87.526 165.558,87.333 166.161,87.332 166.447 C 87.331 166.733,87.204 167.201,87.051 167.488 C 86.898 167.775,86.703 169.207,86.618 170.670 C 86.533 172.134,86.402 173.393,86.326 173.468 C 86.251 173.544,86.312 173.753,86.462 173.933 C 86.611 174.113,86.760 175.156,86.793 176.250 C 86.826 177.344,86.943 178.368,87.054 178.525 C 87.165 178.683,87.344 179.624,87.452 180.616 C 87.638 182.331,88.530 184.494,89.486 185.550 C 89.717 185.806,89.907 186.232,89.907 186.496 C 89.907 186.761,90.165 187.198,90.480 187.468 C 90.795 187.738,91.052 188.070,91.052 188.207 C 91.052 188.344,91.507 188.987,92.063 189.637 C 92.640 190.310,93.299 191.551,93.598 192.526 L 94.123 194.235 94.320 192.536 C 94.493 191.052,95.296 188.088,96.671 183.870 C 96.893 183.187,97.147 181.448,97.236 180.004 C 97.324 178.561,97.534 177.096,97.701 176.750 C 97.976 176.182,97.922 174.741,97.511 171.654 C 97.075 168.376,95.504 162.859,94.631 161.538 C 93.021 159.100,92.657 158.992,90.818 160.405 M141.732 199.766 C 138.681 200.831,136.471 203.716,138.269 204.286 C 139.172 204.573,142.255 203.938,143.242 203.263 C 144.388 202.479,146.314 200.674,146.314 200.385 C 146.314 199.836,142.866 199.370,141.732 199.766 M166.447 214.063 C 165.516 216.491,169.801 219.014,174.131 218.587 C 176.561 218.348,176.615 218.267,175.164 217.049 C 173.403 215.570,166.744 213.289,166.447 214.063 M111.662 219.191 C 111.173 219.780,111.444 219.978,112.742 219.978 C 114.544 219.978,115.340 219.636,114.673 219.148 C 113.950 218.619,112.115 218.645,111.662 219.191 M85.750 227.273 C 86.093 230.042,87.323 232.212,88.548 232.212 C 89.195 232.212,89.060 231.158,88.157 229.150 C 87.859 228.489,87.616 227.822,87.616 227.668 C 87.616 227.267,86.189 225.626,85.840 225.626 C 85.649 225.626,85.618 226.205,85.750 227.273 M146.982 229.226 C 146.815 229.660,146.978 232.488,147.334 235.361 C 147.999 240.725,150.836 244.810,153.896 244.810 C 155.204 244.810,155.380 244.343,154.669 242.762 C 154.361 242.078,154.014 241.067,153.898 240.515 C 153.782 239.964,153.331 238.805,152.896 237.938 C 152.461 237.072,151.938 235.784,151.734 235.075 C 151.115 232.923,147.344 228.282,146.982 229.226 M125.770 229.644 C 124.551 230.134,124.985 230.780,126.533 230.780 C 128.178 230.780,128.848 230.575,128.848 230.070 C 128.848 229.459,126.899 229.190,125.770 229.644 M123.308 232.428 C 122.295 234.067,126.190 237.809,129.087 237.980 C 130.572 238.068,130.715 237.913,130.155 236.829 C 128.830 234.268,124.064 231.204,123.308 232.428 M186.359 240.396 C 185.840 241.570,185.796 242.104,185.938 245.478 C 186.153 250.583,186.215 251.098,186.755 252.255 C 187.012 252.806,187.597 254.223,188.054 255.404 C 188.511 256.586,189.488 258.454,190.224 259.556 C 190.961 260.659,191.787 262.040,192.059 262.627 C 192.594 263.777,192.985 264.017,192.985 263.196 C 192.985 262.914,193.243 262.178,193.558 261.560 C 193.873 260.943,194.130 260.228,194.130 259.973 C 194.130 259.717,194.227 259.412,194.345 259.294 C 194.463 259.176,194.581 258.800,194.608 258.459 C 194.634 258.117,194.795 257.323,194.965 256.693 C 195.556 254.508,195.070 249.374,194.003 246.528 C 193.737 245.820,193.442 244.982,193.348 244.667 C 192.850 243.006,190.575 240.354,188.955 239.546 C 187.447 238.793,187.004 238.938,186.359 240.396 M104.058 239.852 C 103.730 239.917,103.037 240.358,102.517 240.833 L 101.571 241.697 102.210 242.145 C 103.017 242.710,104.799 242.257,105.833 241.222 C 107.147 239.909,106.458 239.377,104.058 239.852 " stroke="none" fill="#7ebe4b" fill-rule="evenodd"></path><path id="path2" d="M108.817 28.956 C 108.630 30.232,108.303 31.680,108.090 32.174 C 107.179 34.288,106.540 37.251,106.417 39.943 C 106.298 42.522,106.311 42.622,106.545 40.945 C 107.223 36.085,107.397 35.212,108.105 33.104 C 108.522 31.863,108.946 30.275,109.049 29.575 L 109.234 28.303 110.805 30.687 C 113.737 35.137,114.125 35.992,114.680 39.226 C 115.694 45.140,114.874 49.959,112.342 52.968 C 111.214 54.309,110.329 54.566,109.617 53.760 L 109.045 53.114 109.503 53.830 C 111.322 56.674,115.189 51.436,115.548 45.642 C 115.644 44.082,115.835 42.452,115.972 42.018 C 116.141 41.479,116.089 40.917,115.805 40.238 C 115.577 39.692,115.390 38.795,115.390 38.244 C 115.390 37.613,114.993 36.543,114.316 35.354 C 113.726 34.315,113.075 33.151,112.869 32.767 C 112.664 32.383,112.374 32.069,112.225 32.069 C 112.076 32.069,111.954 31.871,111.954 31.630 C 111.954 31.389,111.767 31.120,111.537 31.032 C 111.055 30.847,109.664 28.186,109.664 27.448 C 109.664 25.966,109.110 26.952,108.817 28.956 M106.387 44.094 C 106.510 45.637,107.249 48.938,107.530 49.203 C 107.640 49.307,107.661 49.134,107.577 48.819 C 107.492 48.504,107.267 47.344,107.077 46.242 C 106.606 43.509,106.253 42.412,106.387 44.094 M107.787 50.537 C 107.899 51.167,108.099 51.794,108.232 51.932 C 108.364 52.069,108.347 51.621,108.194 50.938 C 107.835 49.342,107.519 49.031,107.787 50.537 M75.107 57.407 C 74.443 57.872,72.780 60.420,72.624 61.212 C 72.571 61.482,72.450 61.897,72.357 62.133 C 71.904 63.275,71.944 66.257,72.455 69.435 C 72.992 72.774,73.787 75.939,73.844 74.965 C 73.860 74.700,73.747 74.153,73.594 73.751 C 71.019 66.978,72.898 57.295,76.791 57.272 L 77.849 57.266 77.698 60.344 C 77.616 62.037,77.430 63.795,77.285 64.252 C 77.140 64.708,77.022 65.748,77.022 66.562 C 77.022 68.476,76.385 70.587,75.183 72.652 C 74.267 74.226,73.596 76.654,74.176 76.296 C 74.324 76.204,74.445 75.847,74.445 75.502 C 74.445 75.157,75.089 73.586,75.877 72.011 C 77.132 69.501,77.309 68.930,77.309 67.377 C 77.309 66.403,77.440 65.261,77.600 64.839 C 77.761 64.417,77.959 62.476,78.042 60.526 L 78.191 56.979 76.955 56.979 C 76.274 56.979,75.443 57.172,75.107 57.407 M236.557 57.616 C 235.357 58.816,237.254 62.557,239.892 64.193 C 241.086 64.933,241.373 64.670,241.415 62.792 C 241.484 59.734,238.073 56.100,236.557 57.616 M212.692 58.239 C 211.118 58.801,209.526 60.190,207.749 62.551 C 206.044 64.816,205.868 65.171,206.659 64.747 C 206.936 64.599,207.903 64.284,208.808 64.048 C 210.489 63.609,216.742 59.725,216.747 59.117 C 216.757 58.119,214.435 57.617,212.692 58.239 M239.016 58.592 C 240.569 59.777,241.783 63.388,240.826 63.979 C 240.348 64.275,238.091 62.287,237.437 60.995 C 236.057 58.266,236.902 56.980,239.016 58.592 M215.624 58.421 C 216.716 59.005,216.414 59.353,213.137 61.286 C 212.458 61.687,211.609 62.281,211.249 62.607 C 209.827 63.894,207.022 64.335,207.650 63.172 C 209.387 59.959,213.698 57.391,215.624 58.421 M54.042 69.987 C 52.425 70.564,51.240 71.611,50.081 73.485 C 49.460 74.491,48.991 77.309,49.445 77.309 C 49.597 77.309,49.667 76.937,49.601 76.482 C 49.247 74.073,52.644 70.150,55.084 70.150 C 57.275 70.150,52.904 76.773,50.169 77.598 C 49.505 77.798,49.482 77.836,50.014 77.857 C 50.543 77.878,52.703 76.479,53.702 75.467 C 54.248 74.915,55.252 72.902,55.819 71.224 L 56.376 69.578 55.747 69.590 C 55.401 69.597,54.634 69.776,54.042 69.987 M104.080 77.023 C 98.504 77.861,94.924 81.250,96.501 84.197 C 97.002 85.132,103.179 81.343,104.595 79.232 C 105.041 78.568,105.677 77.734,106.010 77.380 C 106.707 76.637,106.679 76.632,104.080 77.023 M53.114 77.683 C 51.808 77.998,51.643 78.161,51.782 78.998 C 51.893 79.665,53.566 79.867,54.887 79.374 C 58.043 78.197,56.618 76.838,53.114 77.683 M104.800 78.382 C 104.468 78.973,103.848 79.753,103.422 80.117 C 102.493 80.910,98.884 83.321,98.625 83.321 C 98.524 83.321,98.074 83.583,97.625 83.903 L 96.808 84.485 96.623 83.499 C 96.070 80.552,100.000 77.398,104.313 77.327 L 105.405 77.309 104.800 78.382 M55.667 77.769 C 56.846 78.221,54.987 79.397,53.314 79.257 C 51.560 79.111,51.740 78.278,53.599 77.940 C 54.434 77.787,55.140 77.648,55.166 77.629 C 55.193 77.610,55.418 77.673,55.667 77.769 M255.261 81.648 C 254.631 81.973,253.698 82.636,253.187 83.121 L 252.258 84.003 252.871 84.656 C 254.425 86.310,259.560 86.593,263.142 85.222 C 264.319 84.772,265.523 84.315,265.817 84.208 C 266.459 83.974,265.396 83.064,262.994 81.789 C 261.090 80.779,257.086 80.705,255.261 81.648 M263.494 82.471 C 265.607 83.735,265.568 83.950,263.064 84.847 C 259.541 86.110,255.441 86.116,253.472 84.863 C 252.188 84.046,253.445 82.669,256.550 81.492 C 257.984 80.948,261.862 81.495,263.494 82.471 M253.121 87.314 C 252.592 88.590,253.402 89.835,255.408 90.828 C 259.749 92.978,258.816 89.908,254.226 86.940 C 253.486 86.461,253.472 86.466,253.121 87.314 M254.722 87.682 C 255.176 88.033,255.719 88.485,255.928 88.686 C 256.137 88.887,256.542 89.177,256.828 89.330 C 257.369 89.620,258.129 91.339,257.716 91.339 C 255.903 91.339,253.400 89.398,253.400 87.992 C 253.400 86.875,253.612 86.825,254.722 87.682 M230.398 88.380 C 229.422 89.356,231.179 91.865,233.278 92.494 C 235.907 93.282,235.800 91.704,233.073 89.475 C 231.583 88.257,230.830 87.948,230.398 88.380 M232.824 89.822 C 234.111 90.803,234.764 91.745,234.406 92.103 C 233.720 92.790,230.494 90.538,230.494 89.372 C 230.494 88.469,231.238 88.612,232.824 89.822 M289.825 92.608 C 288.835 92.803,287.875 93.113,287.692 93.296 C 287.509 93.479,287.179 93.629,286.959 93.629 C 286.569 93.629,281.406 97.532,281.227 97.962 C 281.139 98.173,279.961 99.553,278.103 101.620 C 277.594 102.186,277.176 102.744,277.172 102.860 C 277.168 102.976,276.980 103.298,276.753 103.576 C 275.165 105.519,273.816 107.532,274.047 107.615 C 274.459 107.763,275.182 107.066,274.971 106.724 C 274.866 106.554,274.924 106.511,275.107 106.624 C 275.283 106.733,275.915 106.575,276.511 106.272 C 277.107 105.970,278.304 105.632,279.170 105.521 C 281.550 105.217,284.033 104.254,285.469 103.079 C 286.178 102.500,287.530 101.599,288.475 101.078 C 290.628 99.890,292.397 98.690,292.917 98.062 C 293.344 97.548,296.156 95.634,296.994 95.287 C 297.269 95.173,297.495 94.939,297.495 94.767 C 297.495 94.595,297.354 94.541,297.182 94.647 C 297.011 94.753,296.391 94.373,295.806 93.801 C 294.173 92.207,293.025 91.978,289.825 92.608 M293.742 92.761 C 296.234 93.476,296.839 95.036,295.034 96.094 C 294.310 96.518,293.054 97.437,292.242 98.135 C 291.430 98.834,289.993 99.797,289.048 100.275 C 288.103 100.754,286.609 101.727,285.727 102.438 C 283.874 103.931,282.213 104.628,279.086 105.223 C 277.859 105.456,276.592 105.788,276.270 105.961 C 275.948 106.133,275.615 106.204,275.530 106.119 C 275.339 105.928,278.194 101.933,279.667 100.331 C 280.260 99.686,281.224 98.623,281.809 97.969 C 282.395 97.314,282.956 96.779,283.057 96.779 C 283.158 96.779,284.050 96.135,285.039 95.347 C 286.029 94.560,286.962 93.916,287.112 93.916 C 287.262 93.916,287.763 93.727,288.225 93.497 C 288.687 93.266,289.558 93.017,290.160 92.942 C 290.762 92.867,291.328 92.734,291.416 92.645 C 291.660 92.401,292.661 92.451,293.742 92.761 M135.719 94.201 C 134.629 94.302,133.528 94.686,132.140 95.446 C 129.637 96.819,129.491 96.960,130.322 97.212 C 130.692 97.324,131.579 97.769,132.294 98.202 C 135.120 99.914,138.550 100.619,140.587 99.908 C 141.062 99.742,140.665 99.710,139.407 99.812 C 137.195 99.992,135.087 99.412,132.570 97.931 C 130.582 96.761,130.651 96.848,131.302 96.356 C 134.966 93.591,140.566 93.936,142.730 97.059 C 143.639 98.371,143.637 98.391,142.520 99.073 C 142.008 99.385,141.782 99.638,142.019 99.635 C 142.883 99.624,143.817 98.630,143.602 97.950 C 142.781 95.365,139.579 93.842,135.719 94.201 M72.637 100.219 C 70.857 100.754,70.625 101.432,71.759 102.780 C 73.553 104.912,76.774 105.278,79.836 103.697 C 81.504 102.836,81.959 101.933,80.726 101.933 C 80.597 101.933,80.001 101.643,79.403 101.288 C 77.200 99.984,74.726 99.593,72.637 100.219 M77.374 100.697 C 78.047 100.962,79.157 101.524,79.842 101.945 L 81.088 102.712 79.571 103.468 C 76.652 104.922,72.778 104.256,71.667 102.107 C 70.840 100.507,74.561 99.588,77.374 100.697 M351.038 101.344 C 349.190 102.668,346.978 103.791,345.669 104.070 C 345.157 104.180,344.739 104.377,344.739 104.510 C 344.739 104.642,344.320 104.839,343.808 104.948 C 342.612 105.201,340.897 106.109,339.419 107.272 C 338.777 107.777,337.692 108.481,337.009 108.837 C 335.729 109.505,331.854 113.175,331.854 113.721 C 331.854 113.889,332.368 113.464,332.996 112.776 C 335.208 110.353,336.012 109.668,336.650 109.666 C 337.004 109.665,337.294 109.546,337.294 109.403 C 337.294 108.686,341.096 106.442,345.311 104.669 C 346.335 104.239,347.579 103.705,348.075 103.483 C 348.571 103.260,349.068 103.078,349.179 103.078 C 349.290 103.078,349.763 102.756,350.231 102.362 C 351.428 101.355,351.692 101.471,351.047 102.720 C 350.742 103.311,350.340 104.438,350.154 105.225 C 349.968 106.013,349.689 106.935,349.534 107.274 C 349.379 107.613,349.330 108.017,349.425 108.171 C 349.521 108.325,349.343 108.776,349.030 109.174 C 348.717 109.572,348.461 110.223,348.461 110.622 C 348.461 111.021,348.332 111.427,348.175 111.525 C 348.017 111.622,347.888 111.958,347.888 112.271 C 347.888 112.584,347.566 113.139,347.173 113.504 C 346.779 113.869,346.457 114.328,346.457 114.525 C 346.457 114.722,346.124 115.223,345.716 115.638 C 345.309 116.053,343.979 117.423,342.760 118.683 C 340.089 121.443,339.175 122.210,338.292 122.432 C 337.923 122.524,337.559 122.765,337.481 122.967 C 337.404 123.169,336.718 123.637,335.957 124.007 C 335.114 124.418,334.757 124.718,335.041 124.774 C 336.433 125.053,345.884 117.890,345.884 116.558 C 345.884 116.399,346.146 116.129,346.466 115.958 C 347.183 115.574,349.413 110.908,349.224 110.187 C 349.149 109.899,349.189 109.664,349.313 109.664 C 349.653 109.664,349.897 108.786,350.395 105.784 C 350.671 104.114,351.622 102.135,352.692 101.002 C 353.805 99.824,352.898 100.012,351.038 101.344 M215.900 106.486 C 215.895 106.707,215.544 107.609,215.119 108.491 C 214.343 110.101,214.043 111.644,213.708 115.748 L 213.527 117.967 214.373 117.967 C 216.781 117.967,217.970 113.772,216.931 108.937 C 216.563 107.219,215.917 105.686,215.900 106.486 M216.727 109.394 C 217.615 113.536,216.493 117.681,214.484 117.681 C 213.605 117.681,214.216 110.958,215.286 108.866 C 216.040 107.390,216.319 107.492,216.727 109.394 M178.812 108.402 C 174.915 109.782,175.758 111.601,179.929 110.814 C 182.531 110.323,183.404 108.930,181.460 108.371 C 180.170 108.001,179.937 108.004,178.812 108.402 M181.365 108.692 C 182.152 108.994,181.878 109.813,180.867 110.179 C 179.553 110.654,176.951 110.635,176.951 110.149 C 176.951 109.291,180.162 108.230,181.365 108.692 M330.377 115.730 C 329.693 116.547,329.005 117.430,328.848 117.693 C 328.690 117.956,328.226 118.673,327.816 119.286 C 327.406 119.899,326.988 120.723,326.888 121.117 L 326.706 121.832 327.067 121.117 C 327.596 120.067,329.986 116.559,331.017 115.319 C 331.508 114.728,331.845 114.245,331.765 114.245 C 331.686 114.245,331.061 114.913,330.377 115.730 M109.362 120.485 C 108.662 120.926,107.645 121.467,107.102 121.689 C 106.560 121.910,105.722 122.428,105.241 122.839 C 104.760 123.250,103.764 123.932,103.028 124.356 C 101.711 125.112,99.928 126.961,99.928 127.571 C 99.928 127.742,99.542 128.252,99.069 128.705 C 98.425 129.322,98.299 129.593,98.568 129.786 C 98.807 129.957,98.711 129.995,98.282 129.901 C 97.904 129.818,97.709 129.876,97.810 130.040 C 98.438 131.057,107.297 128.434,108.974 126.734 C 110.571 125.116,111.754 121.557,110.875 121.014 C 110.754 120.940,110.702 121.370,110.759 121.971 C 111.100 125.544,106.766 128.811,100.674 129.572 C 98.784 129.808,98.800 129.850,100.042 127.923 C 101.183 126.152,102.263 125.099,103.651 124.400 C 104.202 124.123,105.146 123.475,105.748 122.961 C 106.351 122.447,107.178 121.943,107.587 121.840 C 107.995 121.738,108.647 121.404,109.035 121.099 C 109.423 120.794,109.903 120.544,110.101 120.544 C 110.299 120.544,110.535 120.351,110.626 120.115 C 110.841 119.554,110.845 119.553,109.362 120.485 M325.957 125.170 C 325.822 125.388,325.879 125.422,326.127 125.269 C 326.360 125.125,326.637 125.224,326.862 125.532 C 327.169 125.952,327.602 126.009,329.753 125.910 C 332.170 125.799,335.679 124.882,333.804 124.852 C 333.380 124.845,332.951 124.972,332.850 125.135 C 332.749 125.299,332.129 125.433,331.473 125.434 C 328.410 125.439,327.396 125.363,327.144 125.111 C 326.774 124.741,326.205 124.768,325.957 125.170 M246.589 125.822 C 245.047 129.206,247.702 134.183,251.849 135.682 C 252.781 136.019,253.781 136.432,254.072 136.600 C 254.852 137.049,254.862 136.927,254.286 134.130 C 253.668 131.127,252.808 129.025,251.735 127.893 C 250.532 126.623,248.284 125.062,247.889 125.222 C 247.672 125.309,247.726 125.375,248.026 125.389 C 248.685 125.419,252.541 129.074,252.542 129.670 C 252.543 129.926,252.779 130.523,253.067 130.995 C 253.355 131.467,253.673 132.498,253.774 133.286 C 253.875 134.073,254.046 135.026,254.153 135.404 C 254.335 136.043,254.291 136.076,253.516 135.882 C 248.668 134.666,245.087 129.498,246.833 126.236 C 247.001 125.923,247.093 125.530,247.037 125.363 C 246.982 125.197,246.780 125.403,246.589 125.822 M164.080 127.181 C 161.887 128.320,161.699 128.683,163.068 129.135 C 164.103 129.477,165.020 129.405,167.573 128.784 C 169.039 128.427,169.215 128.097,168.432 127.176 C 167.527 126.111,166.139 126.112,164.080 127.181 M168.017 127.187 C 168.554 127.724,168.422 128.252,167.717 128.388 C 167.362 128.456,166.352 128.667,165.472 128.857 C 163.791 129.221,162.229 128.852,162.844 128.237 C 164.028 127.053,167.233 126.402,168.017 127.187 M169.936 129.126 C 167.458 130.175,164.813 133.435,163.628 136.900 C 163.271 137.944,162.832 139.071,162.653 139.406 C 162.474 139.741,162.429 140.010,162.553 140.004 C 162.962 139.986,164.216 139.176,163.851 139.165 C 163.139 139.145,163.895 136.273,165.143 134.254 C 165.496 133.684,165.784 133.078,165.784 132.906 C 165.784 132.351,169.767 129.385,170.588 129.330 C 171.363 129.277,171.367 129.286,171.348 131.141 C 171.316 134.220,169.166 137.104,165.901 138.446 C 164.846 138.880,164.456 139.144,164.865 139.149 C 167.493 139.176,171.386 135.031,171.714 131.857 C 171.992 129.164,171.528 128.452,169.936 129.126 M139.652 130.565 C 139.573 130.802,139.360 131.699,139.179 132.559 C 138.999 133.419,138.467 134.721,137.998 135.452 C 136.511 137.768,135.719 140.094,135.719 142.142 C 135.719 143.161,135.516 144.742,135.267 145.655 C 135.018 146.569,134.774 148.540,134.724 150.036 C 134.674 151.532,134.539 153.538,134.425 154.493 L 134.217 156.230 135.762 156.060 C 137.863 155.828,140.604 153.965,139.891 153.253 C 139.801 153.163,139.728 153.234,139.728 153.411 C 139.728 154.142,137.146 155.726,135.981 155.710 L 134.846 155.695 135.014 151.958 C 135.106 149.903,135.315 147.631,135.477 146.909 C 135.640 146.188,135.872 144.238,135.994 142.577 C 136.116 140.915,136.357 139.304,136.530 138.998 C 136.703 138.691,137.106 137.835,137.427 137.097 C 137.747 136.358,138.132 135.678,138.284 135.584 C 138.435 135.491,138.846 134.626,139.197 133.663 L 139.836 131.912 140.181 133.028 C 140.652 134.550,140.652 133.652,140.180 131.711 C 139.970 130.845,139.732 130.329,139.652 130.565 M194.775 132.354 C 193.539 132.750,193.576 133.453,194.889 134.535 C 196.778 136.092,199.759 136.379,201.238 135.146 C 203.504 133.257,198.585 131.132,194.775 132.354 M199.935 132.828 C 203.030 134.155,200.512 136.129,196.977 135.147 C 195.653 134.779,194.237 133.360,194.763 132.928 C 195.665 132.187,198.320 132.136,199.935 132.828 M288.189 133.673 C 287.171 134.006,285.755 134.867,285.755 135.154 C 285.755 135.308,285.495 135.693,285.177 136.011 L 284.600 136.589 285.339 136.870 C 285.746 137.025,286.206 137.151,286.361 137.151 C 286.516 137.151,287.048 137.360,287.542 137.616 C 290.037 138.906,295.833 140.133,297.582 139.740 C 298.415 139.554,299.187 139.560,299.907 139.759 C 301.442 140.182,301.430 139.969,299.836 138.460 C 295.428 134.286,291.391 132.627,288.189 133.673 M293.430 134.386 C 295.052 135.045,296.943 136.327,298.926 138.111 L 299.928 139.012 298.640 139.206 C 296.413 139.540,294.079 139.458,293.000 139.007 C 292.428 138.768,291.240 138.390,290.360 138.167 C 287.217 137.369,285.605 136.651,285.705 136.093 C 286.085 133.994,290.218 133.081,293.430 134.386 M141.013 136.292 C 141.126 137.001,141.320 137.688,141.443 137.820 C 141.567 137.952,141.553 137.447,141.413 136.698 C 141.086 134.944,140.743 134.596,141.013 136.292 M141.475 139.012 C 141.470 139.485,141.637 140.750,141.845 141.825 C 142.099 143.137,142.142 144.213,141.976 145.102 C 141.840 145.829,141.790 146.625,141.865 146.870 C 141.940 147.115,141.868 147.831,141.706 148.461 C 141.544 149.091,141.398 149.800,141.383 150.036 C 141.368 150.272,141.054 150.946,140.685 151.533 C 139.974 152.666,139.851 153.034,140.271 152.774 C 140.655 152.537,141.782 150.277,141.605 150.099 C 141.520 150.015,141.580 149.790,141.738 149.599 C 141.896 149.409,142.095 148.173,142.180 146.853 C 142.266 145.532,142.357 144.259,142.384 144.023 C 142.464 143.308,141.963 139.338,141.714 138.726 C 141.519 138.244,141.481 138.290,141.475 139.012 M92.331 158.927 C 92.229 159.093,91.996 159.175,91.813 159.109 C 90.381 158.592,87.537 163.243,86.310 168.108 C 85.066 173.041,86.235 183.351,88.188 184.681 C 88.304 184.760,88.489 185.115,88.599 185.469 C 88.710 185.823,88.920 186.113,89.067 186.113 C 89.214 186.113,89.334 186.312,89.334 186.556 C 89.334 186.799,89.646 187.310,90.028 187.692 C 90.409 188.073,90.805 188.647,90.906 188.967 C 91.008 189.287,91.198 189.549,91.328 189.549 C 91.814 189.549,93.270 192.327,93.645 193.968 L 94.032 195.667 94.390 194.827 C 94.587 194.365,94.754 193.244,94.762 192.337 C 94.769 191.429,94.887 190.463,95.025 190.189 C 95.163 189.916,95.481 188.984,95.732 188.117 C 95.983 187.251,96.507 185.550,96.897 184.337 C 97.371 182.864,97.635 181.310,97.691 179.659 C 97.737 178.299,97.872 177.126,97.992 177.052 C 98.276 176.876,98.236 174.051,97.923 172.226 C 97.401 169.179,96.721 166.205,96.450 165.789 C 96.238 165.464,96.210 165.535,96.340 166.070 C 96.816 168.041,97.416 170.889,97.514 171.654 C 97.927 174.840,97.976 176.182,97.701 176.750 C 97.534 177.096,97.324 178.561,97.236 180.004 C 97.147 181.448,96.893 183.187,96.671 183.870 C 95.296 188.088,94.493 191.052,94.320 192.536 L 94.123 194.235 93.598 192.526 C 93.299 191.551,92.640 190.310,92.063 189.637 C 91.507 188.987,91.052 188.344,91.052 188.207 C 91.052 188.070,90.795 187.738,90.480 187.468 C 90.165 187.198,89.907 186.761,89.907 186.496 C 89.907 186.232,89.717 185.806,89.486 185.550 C 88.530 184.494,87.638 182.331,87.452 180.616 C 87.344 179.624,87.165 178.683,87.054 178.525 C 86.943 178.368,86.826 177.344,86.793 176.250 C 86.760 175.156,86.611 174.113,86.462 173.933 C 86.312 173.753,86.251 173.544,86.326 173.468 C 86.402 173.393,86.533 172.134,86.618 170.670 C 86.703 169.207,86.898 167.775,87.051 167.488 C 87.204 167.201,87.331 166.733,87.332 166.447 C 87.333 166.161,87.526 165.558,87.761 165.107 C 87.996 164.656,88.189 164.131,88.189 163.940 C 88.189 163.749,88.511 163.290,88.905 162.921 C 89.298 162.551,89.621 162.040,89.621 161.787 C 89.621 161.282,91.785 159.485,92.393 159.485 C 92.600 159.485,92.770 159.291,92.770 159.055 C 92.770 158.553,92.594 158.502,92.331 158.927 M93.791 160.346 C 94.757 161.511,95.279 162.468,95.759 163.952 C 96.198 165.311,96.207 165.319,96.045 164.209 C 95.851 162.882,94.844 161.023,93.874 160.202 L 93.200 159.632 93.791 160.346 M141.318 199.478 C 140.242 199.780,138.556 201.032,138.001 201.943 C 135.631 205.829,141.998 205.520,145.899 201.560 L 147.271 200.166 146.434 199.824 C 145.524 199.451,142.214 199.227,141.318 199.478 M145.240 199.872 C 145.830 200.036,146.314 200.267,146.314 200.385 C 146.314 200.674,144.388 202.479,143.242 203.263 C 142.255 203.938,139.172 204.573,138.269 204.286 C 137.008 203.886,138.229 201.352,140.104 200.476 C 142.250 199.473,143.342 199.345,145.240 199.872 M166.278 213.489 C 165.031 214.735,167.413 217.807,170.268 218.637 C 172.922 219.409,178.587 218.765,176.918 217.882 C 176.542 217.683,175.685 217.039,175.013 216.450 C 174.313 215.838,173.338 215.295,172.732 215.182 C 172.150 215.072,171.313 214.797,170.872 214.569 C 170.431 214.341,169.525 214.040,168.858 213.899 C 168.191 213.759,167.384 213.562,167.065 213.462 C 166.746 213.363,166.392 213.374,166.278 213.489 M172.110 215.390 C 173.881 216.028,176.468 217.805,176.217 218.210 C 175.967 218.615,172.123 218.773,170.761 218.435 C 167.943 217.735,165.852 215.616,166.447 214.063 C 166.615 213.626,168.327 214.027,172.110 215.390 M111.883 218.632 C 111.334 218.929,111.095 219.286,111.095 219.805 L 111.095 220.552 113.015 220.355 C 115.791 220.070,116.478 219.346,114.683 218.597 C 113.450 218.081,112.885 218.088,111.883 218.632 M114.673 219.148 C 115.189 219.525,115.182 219.550,114.522 219.759 C 113.698 220.021,111.722 220.049,111.475 219.803 C 110.667 218.994,113.632 218.387,114.673 219.148 M85.419 226.860 C 85.719 230.413,86.921 232.498,88.668 232.498 C 89.752 232.498,89.757 232.483,89.206 230.903 C 88.019 227.498,86.377 224.767,85.516 224.767 C 85.350 224.767,85.311 225.592,85.419 226.860 M86.875 226.507 C 87.283 226.992,87.616 227.514,87.616 227.668 C 87.616 227.822,87.859 228.489,88.157 229.150 C 89.060 231.158,89.195 232.212,88.548 232.212 C 87.323 232.212,86.093 230.042,85.750 227.273 C 85.514 225.372,85.772 225.197,86.875 226.507 M146.701 230.995 C 147.130 240.057,149.400 244.716,153.530 245.013 C 155.785 245.175,155.948 244.947,155.068 242.856 C 154.662 241.893,154.329 240.876,154.328 240.596 C 154.326 240.315,153.812 238.991,153.185 237.652 C 152.559 236.314,152.045 235.052,152.043 234.849 C 152.037 234.084,150.853 232.199,149.366 230.588 C 148.519 229.670,147.612 228.500,147.349 227.989 C 146.580 226.490,146.505 226.841,146.701 230.995 M150.775 232.928 C 151.099 233.400,151.530 234.366,151.734 235.075 C 151.938 235.784,152.461 237.072,152.896 237.938 C 153.331 238.805,153.782 239.964,153.898 240.515 C 154.014 241.067,154.361 242.078,154.669 242.762 C 155.380 244.343,155.204 244.810,153.896 244.810 C 150.836 244.810,147.999 240.725,147.334 235.361 C 146.978 232.488,146.815 229.660,146.982 229.226 C 147.164 228.751,149.430 230.962,150.775 232.928 M125.372 229.632 L 124.696 230.202 125.633 229.751 C 126.709 229.233,128.848 229.438,128.848 230.059 C 128.848 230.585,128.183 230.780,126.390 230.780 C 125.429 230.780,124.839 230.903,124.839 231.104 C 124.839 231.330,125.361 231.368,126.580 231.230 C 129.685 230.879,130.644 230.006,128.600 229.394 C 127.012 228.918,126.143 228.982,125.372 229.632 M122.930 232.377 C 122.159 234.385,126.074 238.279,128.775 238.189 L 129.850 238.153 128.704 237.958 C 125.938 237.489,123.801 235.579,123.267 233.101 L 123.057 232.128 124.306 232.317 C 125.180 232.450,125.426 232.420,125.125 232.220 C 124.456 231.774,123.125 231.869,122.930 232.377 M125.841 232.785 C 125.938 232.942,126.195 233.071,126.412 233.071 C 127.579 233.071,131.016 237.477,130.235 237.972 C 129.969 238.140,130.099 238.217,130.653 238.220 L 131.457 238.225 130.940 237.340 C 130.139 235.969,128.567 234.224,127.318 233.319 C 126.178 232.494,125.512 232.252,125.841 232.785 M187.402 238.797 C 187.304 238.955,187.406 239.084,187.627 239.084 C 189.270 239.084,192.668 242.401,193.348 244.667 C 193.442 244.982,193.737 245.820,194.003 246.528 C 195.070 249.374,195.556 254.508,194.965 256.693 C 194.795 257.323,194.634 258.117,194.608 258.459 C 194.581 258.800,194.463 259.176,194.345 259.294 C 194.227 259.412,194.130 259.717,194.130 259.973 C 194.130 260.228,193.873 260.943,193.558 261.560 C 193.243 262.178,192.985 262.914,192.985 263.196 C 192.985 264.017,192.594 263.777,192.059 262.627 C 191.787 262.040,190.922 260.594,190.137 259.413 C 189.353 258.232,188.357 256.299,187.923 255.118 C 186.899 252.331,186.139 250.800,186.125 251.495 C 186.118 251.785,186.291 252.365,186.508 252.783 C 186.919 253.576,187.114 254.035,188.046 256.407 C 188.355 257.194,189.328 258.911,190.208 260.221 C 191.089 261.532,191.963 263.078,192.151 263.657 C 192.847 265.797,193.175 265.897,193.345 264.022 C 193.430 263.086,193.690 261.956,193.923 261.511 C 195.359 258.768,196.605 253.551,196.157 252.155 C 195.998 251.659,195.743 250.451,195.589 249.471 C 195.436 248.491,195.124 247.267,194.897 246.751 C 194.669 246.235,194.211 245.202,193.877 244.456 C 193.544 243.709,193.271 243.020,193.271 242.925 C 193.271 241.514,188.009 237.814,187.402 238.797 M104.250 239.416 C 102.939 239.793,101.360 241.032,101.360 241.685 C 101.360 242.961,103.998 243.127,105.646 241.954 C 108.186 240.145,107.302 238.539,104.250 239.416 M106.514 240.099 C 106.514 241.456,103.364 242.953,102.210 242.145 L 101.571 241.697 102.517 240.833 C 103.490 239.944,103.980 239.763,105.583 239.695 C 106.249 239.668,106.514 239.783,106.514 240.099 M185.714 241.255 C 185.488 241.843,185.542 246.760,185.784 247.621 C 185.886 247.986,185.970 246.601,185.970 244.544 C 185.970 242.486,185.952 240.803,185.929 240.802 C 185.906 240.802,185.810 241.006,185.714 241.255 M185.561 248.676 C 185.561 248.833,185.745 249.284,185.970 249.678 C 186.195 250.072,186.379 250.265,186.379 250.107 C 186.379 249.950,186.195 249.499,185.970 249.105 C 185.745 248.712,185.561 248.518,185.561 248.676 " stroke="none" fill="#bad4a0" fill-rule="evenodd"></path><path id="path3" d="M115.420 38.449 C 115.404 38.887,115.577 39.692,115.805 40.238 C 116.089 40.917,116.141 41.479,115.972 42.018 C 115.835 42.452,115.644 44.082,115.548 45.642 C 115.350 48.844,114.454 51.242,112.620 53.480 C 111.273 55.124,111.829 56.556,113.515 55.788 C 116.416 54.466,118.400 43.165,116.296 39.947 C 116.192 39.787,115.958 39.205,115.778 38.654 C 115.462 37.688,115.449 37.681,115.420 38.449 M109.950 55.118 C 109.950 55.354,110.079 55.548,110.236 55.548 C 110.394 55.548,110.523 55.354,110.523 55.118 C 110.523 54.882,110.394 54.689,110.236 54.689 C 110.079 54.689,109.950 54.882,109.950 55.118 M104.510 82.033 C 104.510 83.533,104.693 83.601,105.611 82.439 C 106.403 81.438,106.249 80.744,105.234 80.744 C 104.566 80.744,104.510 80.845,104.510 82.033 M346.385 115.986 C 346.110 116.146,345.884 116.406,345.884 116.562 C 345.884 118.009,337.180 124.474,334.574 124.963 C 333.955 125.079,333.096 125.357,332.665 125.579 C 332.180 125.830,331.003 125.984,329.571 125.984 C 327.009 125.984,326.398 126.458,326.815 128.121 C 327.509 130.887,334.554 129.037,339.728 124.729 C 343.025 121.984,348.189 115.518,346.951 115.685 C 346.915 115.690,346.661 115.825,346.385 115.986 M99.344 122.560 C 97.954 123.950,98.009 125.212,99.452 125.049 C 100.326 124.951,100.361 124.895,100.444 123.461 C 100.539 121.836,100.280 121.624,99.344 122.560 M325.484 124.507 C 324.700 124.980,324.414 125.698,325.009 125.698 C 325.181 125.698,325.649 125.440,326.049 125.125 C 326.450 124.810,326.623 124.553,326.435 124.553 C 326.247 124.553,326.173 124.424,326.271 124.266 C 326.490 123.911,326.453 123.922,325.484 124.507 M293.926 142.047 C 292.675 143.147,292.833 143.450,294.657 143.450 C 296.273 143.450,296.666 143.001,296.053 141.856 C 295.562 140.940,295.145 140.977,293.926 142.047 M88.475 157.387 C 84.515 158.555,82.702 173.070,85.710 179.528 L 86.177 180.530 85.998 178.382 C 85.357 170.685,86.371 165.312,89.220 161.321 C 89.960 160.283,90.740 159.367,90.953 159.285 C 91.510 159.071,91.435 158.800,90.584 157.949 C 89.861 157.226,89.419 157.109,88.475 157.387 M92.822 157.779 C 92.554 158.503,92.689 159.485,93.057 159.485 C 93.383 159.485,93.609 157.667,93.321 157.360 C 93.176 157.206,92.970 157.379,92.822 157.779 M174.087 213.037 C 174.087 214.124,174.950 215.337,175.510 215.037 C 176.299 214.615,176.241 214.046,175.337 213.335 C 174.508 212.683,174.087 212.583,174.087 213.037 M188.840 236.804 C 188.920 236.934,188.855 237.121,188.695 237.220 C 188.101 237.587,188.414 238.502,189.289 238.954 C 190.173 239.412,193.271 242.465,193.271 242.880 C 193.271 243.000,193.544 243.709,193.877 244.456 C 194.211 245.202,194.663 246.221,194.882 246.720 C 195.101 247.218,195.464 248.681,195.689 249.970 C 196.203 252.914,196.421 253.155,196.421 250.780 C 196.421 244.339,193.188 237.581,189.733 236.802 C 189.162 236.673,188.760 236.674,188.840 236.804 M186.336 237.839 C 186.264 237.973,186.371 238.399,186.574 238.787 C 186.903 239.417,186.964 239.438,187.140 238.980 C 187.342 238.454,186.585 237.380,186.336 237.839 " stroke="none" fill="#b5b4b3" fill-rule="evenodd"></path><path id="path4" d="M108.864 26.469 C 108.674 26.887,108.518 27.702,108.518 28.280 C 108.518 29.305,107.674 32.486,106.943 34.216 C 105.846 36.812,105.381 44.110,106.206 45.768 C 106.499 46.356,107.379 50.081,107.375 50.719 C 107.374 50.977,107.804 51.815,108.330 52.581 C 108.857 53.346,109.378 54.457,109.489 55.049 C 109.671 56.023,109.746 56.096,110.272 55.815 C 110.954 55.450,111.668 55.650,111.668 56.206 C 111.668 57.154,113.021 57.393,114.029 56.624 C 118.159 53.474,119.123 44.623,116.114 37.487 C 115.209 35.342,112.458 30.918,111.880 30.679 C 111.203 30.400,110.525 29.275,110.357 28.151 C 110.253 27.460,109.952 26.628,109.689 26.302 L 109.210 25.711 108.864 26.469 M109.664 27.448 C 109.664 28.186,111.055 30.847,111.537 31.032 C 111.767 31.120,111.954 31.389,111.954 31.630 C 111.954 31.871,112.076 32.069,112.225 32.069 C 112.374 32.069,112.664 32.383,112.869 32.767 C 113.075 33.151,113.717 34.300,114.298 35.320 C 114.878 36.340,115.512 37.733,115.708 38.415 C 115.903 39.098,116.158 39.785,116.274 39.943 C 116.683 40.497,117.066 44.556,116.976 47.387 C 116.799 52.967,113.863 57.590,111.965 55.280 C 111.133 54.269,110.523 54.140,110.523 54.975 C 110.523 55.290,110.394 55.548,110.236 55.548 C 110.079 55.548,109.950 55.320,109.950 55.043 C 109.950 54.765,109.516 53.893,108.985 53.105 C 108.455 52.317,107.870 51.031,107.686 50.246 C 107.501 49.461,107.142 48.046,106.888 47.101 C 105.840 43.209,106.416 36.057,108.090 32.174 C 108.303 31.680,108.630 30.232,108.817 28.956 C 109.110 26.952,109.664 25.966,109.664 27.448 M77.886 56.258 C 77.692 56.491,77.251 56.658,76.904 56.629 C 74.908 56.464,72.519 59.131,72.020 62.082 C 71.909 62.741,71.754 63.634,71.675 64.067 C 71.228 66.542,73.269 77.165,74.192 77.165 C 74.410 77.165,74.622 76.843,74.664 76.450 C 74.816 74.996,75.366 73.501,76.276 72.060 C 77.371 70.327,78.017 68.205,77.791 67.080 C 77.704 66.643,77.804 65.576,78.014 64.710 C 78.490 62.747,78.871 55.834,78.503 55.834 C 78.357 55.834,78.079 56.025,77.886 56.258 M78.042 60.526 C 77.959 62.476,77.761 64.417,77.600 64.839 C 77.440 65.261,77.309 66.403,77.309 67.377 C 77.309 68.930,77.132 69.501,75.877 72.011 C 75.089 73.586,74.445 75.157,74.445 75.502 C 74.445 76.831,73.961 76.333,73.473 74.502 C 72.185 69.668,71.665 63.898,72.358 62.133 C 72.451 61.897,72.571 61.482,72.624 61.212 C 73.042 59.093,75.204 56.979,76.955 56.979 L 78.191 56.979 78.042 60.526 M236.278 57.323 C 234.805 58.795,238.029 64.564,240.599 65.055 C 243.172 65.547,241.987 59.201,239.212 57.629 C 237.959 56.919,236.802 56.799,236.278 57.323 M239.242 58.150 C 240.907 59.149,242.173 63.453,241.113 64.513 C 240.430 65.196,237.342 62.376,236.662 60.450 C 235.620 57.495,236.637 56.587,239.242 58.150 M212.413 58.001 C 211.136 58.395,207.015 62.018,207.015 62.748 C 207.015 62.896,206.693 63.365,206.299 63.789 C 205.313 64.853,205.527 66.161,206.549 65.313 C 206.751 65.146,207.744 64.747,208.755 64.427 C 211.091 63.689,217.323 59.819,217.323 59.107 C 217.323 57.922,214.637 57.317,212.413 58.001 M215.919 58.329 C 216.376 58.600,216.749 58.954,216.747 59.117 C 216.742 59.725,210.489 63.609,208.808 64.048 C 207.903 64.284,206.936 64.599,206.659 64.747 C 205.868 65.171,206.044 64.816,207.749 62.551 C 210.751 58.562,213.717 57.029,215.919 58.329 M55.034 69.287 C 53.872 69.562,51.253 70.787,51.253 71.055 C 51.253 71.163,50.811 71.830,50.272 72.537 C 48.857 74.391,48.487 78.168,49.721 78.168 C 50.078 78.168,50.068 78.087,49.665 77.684 C 47.700 75.720,51.479 70.292,55.228 69.693 L 56.401 69.505 55.832 71.188 C 54.784 74.287,53.595 75.934,51.467 77.236 C 50.675 77.721,50.435 78.168,50.966 78.168 C 51.124 78.168,51.253 78.393,51.254 78.669 C 51.261 80.516,55.892 80.319,57.070 78.421 C 57.774 77.287,57.120 76.931,54.647 77.100 L 52.327 77.259 53.480 76.067 C 54.706 74.798,56.225 71.840,56.556 70.073 C 56.775 68.906,56.734 68.884,55.034 69.287 M102.362 76.992 C 97.725 78.150,95.556 80.473,96.049 83.755 C 96.269 85.223,96.439 85.274,98.216 84.393 C 99.317 83.847,100.239 83.258,103.253 81.174 C 103.836 80.771,104.214 81.464,104.219 82.947 C 104.225 84.578,104.561 84.667,105.901 83.392 C 107.769 81.615,107.857 80.056,106.108 79.728 C 104.976 79.516,105.185 78.443,106.543 77.492 C 108.078 76.417,105.769 76.141,102.362 76.992 M106.010 77.380 C 105.677 77.734,105.041 78.568,104.595 79.232 C 103.179 81.343,97.002 85.132,96.501 84.197 C 94.924 81.250,98.504 77.861,104.080 77.023 C 106.679 76.632,106.707 76.637,106.010 77.380 M56.647 77.739 C 57.423 78.516,54.099 80.049,52.698 79.561 C 51.858 79.268,51.774 79.168,51.711 78.384 C 51.653 77.667,56.006 77.098,56.647 77.739 M256.878 80.778 C 254.406 81.240,250.185 84.753,252.101 84.753 C 252.331 84.753,252.749 84.999,253.031 85.299 C 253.503 85.802,255.281 86.257,257.981 86.565 C 259.748 86.767,266.714 84.685,266.714 83.956 C 266.714 83.754,266.441 83.432,266.106 83.240 C 265.772 83.049,264.792 82.423,263.930 81.849 C 262.205 80.702,259.488 80.289,256.878 80.778 M106.121 81.167 C 106.277 81.572,105.166 83.273,104.724 83.306 C 104.606 83.314,104.510 82.742,104.510 82.033 C 104.510 80.694,105.695 80.057,106.121 81.167 M262.994 81.789 C 265.396 83.064,266.459 83.974,265.817 84.208 C 265.523 84.315,264.319 84.772,263.142 85.222 C 259.560 86.593,254.425 86.310,252.871 84.656 L 252.258 84.003 253.187 83.121 C 255.595 80.835,260.055 80.229,262.994 81.789 M253.015 86.708 C 251.484 88.400,253.466 90.928,257.087 91.902 C 260.019 92.691,258.570 89.343,254.891 86.829 C 253.750 86.050,253.619 86.041,253.015 86.708 M256.210 88.429 C 258.080 89.950,258.827 91.633,257.623 91.616 C 255.214 91.581,252.448 88.938,253.121 87.314 C 253.528 86.331,253.714 86.398,256.210 88.429 M230.278 87.974 C 228.847 89.762,230.611 92.264,233.877 93.080 C 235.185 93.407,235.435 93.402,235.662 93.044 C 236.011 92.491,236.004 91.911,235.648 91.911 C 235.490 91.911,235.361 91.679,235.361 91.395 C 235.361 89.966,231.021 87.045,230.278 87.974 M233.073 89.475 C 234.841 90.921,235.681 92.379,234.914 92.673 C 233.443 93.238,230.208 90.995,230.208 89.411 C 230.208 87.755,230.991 87.773,233.073 89.475 M45.050 92.074 C 44.955 92.320,45.024 92.669,45.204 92.849 C 45.607 93.252,46.562 92.428,46.259 91.939 C 45.973 91.476,45.248 91.557,45.050 92.074 M289.940 92.212 C 288.259 92.472,285.833 93.637,284.180 94.977 C 283.708 95.360,282.834 96.040,282.238 96.489 C 280.834 97.545,278.478 100.374,275.482 104.602 C 272.986 108.122,272.713 109.147,274.610 107.874 C 276.736 106.446,277.811 105.941,278.726 105.941 C 280.668 105.941,284.768 104.409,285.950 103.241 C 286.293 102.902,287.515 102.114,288.665 101.491 C 289.816 100.868,291.577 99.667,292.580 98.822 C 293.583 97.978,294.680 97.137,295.019 96.954 C 297.836 95.428,298.881 94.202,297.365 94.202 C 296.940 94.202,296.282 93.810,295.698 93.208 C 294.580 92.056,292.861 91.759,289.940 92.212 M293.785 92.483 C 294.343 92.638,295.239 93.217,295.775 93.771 C 296.499 94.518,296.901 94.729,297.335 94.591 C 297.851 94.427,297.874 94.461,297.529 94.876 C 297.314 95.135,297.038 95.347,296.916 95.347 C 296.579 95.347,293.746 97.289,292.770 98.187 C 291.691 99.182,290.653 99.881,288.475 101.079 C 287.530 101.600,286.178 102.500,285.469 103.079 C 284.033 104.254,281.550 105.217,279.170 105.521 C 277.605 105.722,275.747 106.478,274.820 107.293 C 273.180 108.733,274.303 106.574,276.753 103.576 C 276.980 103.298,277.168 102.976,277.172 102.860 C 277.176 102.744,277.594 102.186,278.103 101.620 C 279.961 99.553,281.139 98.173,281.227 97.962 C 281.406 97.532,286.569 93.629,286.959 93.629 C 287.179 93.629,287.509 93.479,287.692 93.296 C 288.411 92.577,292.271 92.062,293.785 92.483 M134.001 94.126 C 133.293 94.375,132.262 94.859,131.711 95.203 C 131.160 95.547,130.354 95.916,129.921 96.023 C 128.928 96.268,128.903 96.991,129.874 97.361 C 130.281 97.515,131.215 97.995,131.950 98.427 C 133.791 99.509,136.757 100.509,137.988 100.463 C 138.970 100.426,138.959 100.416,137.724 100.221 C 135.964 99.943,133.914 99.184,132.323 98.220 C 131.593 97.778,130.692 97.324,130.322 97.212 C 129.475 96.956,129.640 96.802,132.322 95.362 C 136.707 93.006,141.992 94.118,143.480 97.709 C 143.802 98.488,143.772 98.612,143.141 99.102 L 142.448 99.640 143.401 99.319 C 144.240 99.036,144.331 98.909,144.166 98.246 C 143.299 94.771,138.133 92.677,134.001 94.126 M74.875 99.824 C 76.475 99.970,78.124 100.500,79.379 101.274 C 79.966 101.636,80.562 101.933,80.704 101.933 C 81.957 101.933,81.516 102.829,79.836 103.697 C 76.774 105.278,73.553 104.912,71.759 102.780 C 70.625 101.432,70.857 100.754,72.637 100.219 C 73.427 99.982,73.429 99.977,72.727 99.954 C 71.526 99.916,70.341 101.070,70.676 101.953 C 71.528 104.194,76.086 105.848,78.507 104.794 C 79.846 104.211,82.000 102.889,82.100 102.590 C 82.320 101.930,77.356 99.811,75.480 99.764 C 74.517 99.740,74.245 99.767,74.875 99.824 M140.587 99.928 C 139.886 100.153,139.888 100.158,140.730 100.182 C 141.203 100.195,141.782 100.081,142.019 99.928 C 142.561 99.578,141.682 99.578,140.587 99.928 M351.920 100.314 C 351.229 100.684,350.390 101.250,350.056 101.571 C 349.721 101.893,348.872 102.422,348.167 102.747 C 346.984 103.293,346.356 103.536,343.593 104.519 C 342.094 105.052,341.030 105.653,339.442 106.862 C 338.655 107.462,337.457 108.223,336.782 108.553 C 335.371 109.242,332.758 111.837,330.781 114.511 C 330.033 115.523,329.070 116.812,328.643 117.374 C 327.060 119.456,325.414 123.648,325.964 124.199 C 326.039 124.273,326.176 123.964,326.270 123.513 C 326.695 121.462,327.092 120.371,327.799 119.310 C 328.218 118.682,328.690 117.962,328.848 117.711 C 329.005 117.460,329.746 116.527,330.494 115.639 C 331.242 114.751,331.854 113.887,331.854 113.719 C 331.854 113.175,335.731 109.504,337.009 108.837 C 337.692 108.481,338.777 107.777,339.419 107.272 C 340.897 106.109,342.612 105.201,343.808 104.948 C 344.320 104.839,344.739 104.647,344.739 104.521 C 344.739 104.395,345.287 104.153,345.956 103.985 C 347.319 103.642,348.777 102.877,351.101 101.288 C 352.965 100.015,353.760 99.872,352.692 101.002 C 351.622 102.135,350.671 104.114,350.395 105.784 C 349.897 108.786,349.653 109.664,349.313 109.664 C 349.189 109.664,349.149 109.900,349.225 110.189 C 349.300 110.479,348.773 111.968,348.053 113.499 C 347.332 115.031,346.743 116.384,346.743 116.508 C 346.743 117.971,340.311 124.722,336.865 126.875 C 331.637 130.142,325.662 130.119,326.901 126.837 C 327.373 125.587,326.823 124.951,325.709 125.459 C 325.057 125.756,324.860 125.760,324.766 125.478 C 324.700 125.282,324.527 125.196,324.380 125.286 C 323.938 125.560,324.397 125.984,325.137 125.984 C 325.787 125.984,325.820 126.060,325.668 127.201 C 324.864 133.215,336.029 130.642,343.021 123.202 C 345.101 120.989,346.170 119.732,346.170 119.502 C 346.170 119.399,346.613 118.648,347.154 117.832 C 347.696 117.017,348.232 115.977,348.347 115.521 C 348.461 115.064,348.779 114.301,349.053 113.824 C 349.328 113.347,349.645 112.378,349.759 111.672 C 349.873 110.965,350.133 109.913,350.338 109.333 C 350.542 108.754,350.785 107.423,350.878 106.376 C 351.084 104.046,351.522 102.980,352.866 101.539 C 354.595 99.685,354.157 99.118,351.920 100.314 M215.776 105.579 C 215.682 105.673,215.605 105.969,215.605 106.235 C 215.605 106.502,215.218 107.479,214.744 108.406 C 213.338 111.163,212.585 118.881,213.767 118.427 C 214.016 118.332,214.480 118.253,214.798 118.253 C 216.637 118.253,219.116 111.311,217.609 110.379 C 217.452 110.282,217.323 109.833,217.323 109.382 C 217.323 107.255,216.391 104.964,215.776 105.579 M216.931 108.937 C 217.970 113.772,216.781 117.967,214.373 117.967 L 213.527 117.967 213.708 115.748 C 214.043 111.644,214.343 110.101,215.119 108.491 C 215.544 107.609,215.895 106.707,215.900 106.486 C 215.917 105.686,216.563 107.219,216.931 108.937 M178.669 107.863 C 177.829 108.173,175.549 109.745,175.409 110.110 C 175.117 110.871,177.341 111.819,178.784 111.549 C 180.835 111.164,182.624 110.502,182.791 110.065 C 183.363 108.575,180.655 107.129,178.669 107.863 M181.460 108.371 C 183.404 108.930,182.531 110.323,179.929 110.814 C 175.758 111.601,174.915 109.782,178.812 108.402 C 179.937 108.004,180.170 108.001,181.460 108.371 M110.382 119.394 C 110.287 119.549,109.207 120.171,107.983 120.778 C 106.758 121.384,105.046 122.417,104.177 123.073 C 103.308 123.729,102.490 124.266,102.359 124.266 C 102.228 124.266,101.895 124.471,101.619 124.721 C 101.085 125.204,100.935 124.700,100.717 121.689 C 100.630 120.486,100.225 120.421,98.913 121.403 C 96.358 123.316,95.959 126.844,98.348 126.396 C 100.199 126.049,99.998 127.771,98.031 129.118 C 95.858 130.607,97.442 130.963,102.076 130.025 C 105.715 129.289,110.274 127.071,109.578 126.376 C 109.499 126.297,109.196 126.483,108.905 126.790 C 107.617 128.145,104.453 129.293,100.086 129.990 C 97.632 130.383,97.406 130.201,98.794 128.947 C 99.418 128.383,99.928 127.773,99.928 127.591 C 99.928 126.961,101.694 125.122,103.028 124.362 C 103.764 123.943,104.689 123.311,105.082 122.958 C 105.476 122.605,106.442 122.003,107.230 121.621 C 108.017 121.238,109.134 120.639,109.712 120.290 C 110.711 119.687,110.756 119.683,110.618 120.211 C 110.538 120.516,110.613 120.852,110.784 120.958 C 111.362 121.315,111.127 123.444,110.358 124.814 C 109.801 125.807,109.764 125.953,110.210 125.412 C 111.288 124.103,111.810 122.337,111.430 121.286 C 111.246 120.777,111.095 120.079,111.095 119.736 C 111.095 119.093,110.689 118.898,110.382 119.394 M100.444 123.461 C 100.361 124.895,100.326 124.951,99.452 125.049 C 98.009 125.212,97.954 123.950,99.344 122.560 C 100.280 121.624,100.539 121.836,100.444 123.461 M246.440 125.365 C 245.355 127.825,245.983 131.260,247.916 133.429 C 248.408 133.980,248.812 134.529,248.814 134.650 C 248.819 134.892,251.748 136.292,252.250 136.292 C 252.425 136.292,253.103 136.550,253.756 136.866 C 255.203 137.565,255.616 137.292,255.128 135.956 C 254.937 135.432,254.679 134.295,254.555 133.429 C 254.248 131.284,253.181 128.912,251.971 127.686 C 250.698 126.395,248.848 125.001,248.659 125.190 C 248.580 125.269,248.851 125.555,249.263 125.824 C 252.121 127.697,253.409 129.825,254.290 134.130 C 254.862 136.927,254.851 137.048,254.072 136.600 C 253.781 136.432,252.781 136.019,251.849 135.682 C 248.558 134.492,246.242 131.415,246.242 128.232 C 246.242 126.264,246.691 125.125,247.468 125.125 C 247.935 125.125,247.970 125.053,247.674 124.696 C 247.146 124.061,246.974 124.154,246.440 125.365 M164.841 126.423 C 163.057 127.078,161.059 128.669,161.376 129.182 C 161.636 129.604,164.696 129.755,166.521 129.437 C 168.870 129.028,169.018 129.150,167.623 130.341 C 164.958 132.618,164.389 133.464,163.190 136.933 C 162.769 138.151,162.267 139.337,162.075 139.569 C 161.684 140.040,161.898 140.587,162.473 140.587 C 162.681 140.587,163.011 140.394,163.207 140.157 C 163.403 139.921,163.820 139.728,164.134 139.728 C 168.001 139.728,172.169 135.040,172.174 130.685 C 172.177 128.170,172.035 127.898,171.004 128.436 C 169.915 129.004,169.220 128.957,169.220 128.313 C 169.220 127.487,168.116 126.265,167.409 126.310 C 166.789 126.348,166.789 126.349,167.428 126.472 C 168.069 126.596,168.933 127.554,168.933 128.141 C 168.933 128.441,167.385 128.914,165.158 129.296 C 164.085 129.480,162.062 129.001,162.062 128.562 C 162.062 128.228,163.837 127.164,165.444 126.536 C 166.998 125.928,166.462 125.828,164.841 126.423 M171.686 129.589 C 172.604 133.249,168.430 139.110,164.865 139.165 C 164.504 139.171,163.887 139.360,163.493 139.585 C 162.492 140.157,162.276 140.111,162.653 139.406 C 162.832 139.071,163.271 137.944,163.628 136.900 C 165.331 131.920,170.983 126.791,171.686 129.589 M139.049 130.064 C 138.955 130.419,138.872 131.224,138.867 131.854 C 138.857 132.984,138.291 134.399,137.120 136.226 C 136.030 137.925,135.159 140.886,135.153 142.914 C 135.149 143.958,134.949 145.284,134.708 145.862 C 134.405 146.587,134.233 148.225,134.151 151.153 C 134.086 153.486,133.951 155.721,133.851 156.120 C 133.635 156.979,134.074 157.367,134.577 156.761 C 134.788 156.507,135.418 156.335,136.141 156.335 C 138.338 156.335,140.724 153.766,142.258 149.749 C 142.870 148.149,142.880 142.610,142.278 139.442 C 140.695 131.116,139.611 127.968,139.049 130.064 M141.094 135.433 C 141.268 135.984,141.477 136.886,141.558 137.437 C 141.639 137.989,141.888 139.664,142.112 141.160 C 142.335 142.656,142.478 143.951,142.430 144.037 C 142.382 144.124,142.271 145.324,142.185 146.705 C 142.099 148.086,141.935 149.366,141.822 149.550 C 141.709 149.733,141.598 150.078,141.576 150.317 C 141.554 150.556,141.263 151.203,140.930 151.754 C 140.597 152.305,140.109 153.179,139.846 153.696 C 139.223 154.921,137.293 156.049,135.823 156.049 C 135.199 156.049,134.555 156.182,134.391 156.346 C 134.186 156.551,134.172 156.131,134.345 154.986 C 134.484 154.074,134.647 151.976,134.709 150.322 C 134.771 148.669,135.023 146.569,135.270 145.655 C 135.517 144.742,135.719 143.161,135.719 142.142 C 135.719 140.094,136.511 137.768,137.998 135.452 C 138.467 134.721,138.999 133.419,139.179 132.559 C 139.707 130.044,139.776 130.027,140.289 132.283 C 140.558 133.465,140.920 134.882,141.094 135.433 M194.417 131.978 C 192.731 132.660,192.700 133.093,194.232 134.505 C 196.413 136.516,199.855 136.962,201.511 135.449 C 204.218 132.976,198.664 130.259,194.417 131.978 M200.440 132.641 C 203.455 134.162,200.992 136.610,197.331 135.732 C 195.766 135.356,193.844 133.941,193.844 133.163 C 193.844 131.945,198.352 131.588,200.440 132.641 M286.543 134.154 C 285.795 134.703,285.183 135.329,285.183 135.546 C 285.183 135.762,284.893 136.021,284.538 136.121 L 283.894 136.302 284.570 136.870 C 284.942 137.182,285.473 137.437,285.751 137.437 C 286.029 137.437,286.982 137.758,287.868 138.150 C 288.754 138.542,290.019 138.949,290.678 139.054 C 291.338 139.160,292.207 139.418,292.610 139.628 C 293.013 139.839,293.558 140.012,293.821 140.013 C 295.302 140.018,295.217 140.364,293.277 142.241 L 291.339 144.116 292.813 144.321 C 293.624 144.434,294.404 144.598,294.546 144.686 C 294.954 144.938,297.289 144.325,297.848 143.819 C 298.510 143.220,298.486 142.562,297.759 141.330 L 297.165 140.323 297.904 140.137 C 298.598 139.963,300.172 140.138,301.094 140.491 C 301.363 140.594,301.503 140.456,301.503 140.089 C 301.503 139.182,295.944 134.288,294.914 134.288 C 294.718 134.288,295.411 134.910,296.454 135.671 C 298.562 137.208,301.318 139.723,301.115 139.925 C 301.043 139.997,300.499 139.922,299.907 139.759 C 299.187 139.560,298.415 139.554,297.582 139.740 C 295.833 140.133,290.037 138.906,287.542 137.616 C 287.048 137.360,286.516 137.151,286.361 137.151 C 286.206 137.151,285.746 137.025,285.339 136.870 L 284.600 136.589 285.177 136.011 C 285.495 135.693,285.755 135.317,285.755 135.175 C 285.755 133.908,290.928 132.950,293.030 133.829 C 294.382 134.394,294.743 134.222,293.527 133.593 C 291.779 132.689,288.141 132.982,286.543 134.154 M296.053 141.856 C 296.666 143.001,296.273 143.450,294.657 143.450 C 292.833 143.450,292.675 143.147,293.926 142.047 C 295.145 140.977,295.562 140.940,296.053 141.856 M87.108 157.212 C 82.561 161.758,81.564 174.837,85.280 181.175 C 85.718 181.923,86.156 182.746,86.254 183.006 C 86.695 184.182,89.546 188.385,90.693 189.549 C 92.017 190.894,92.855 192.432,93.189 194.130 C 93.520 195.817,93.654 196.135,94.032 196.135 C 94.518 196.135,95.002 194.431,95.197 192.035 C 95.302 190.748,95.257 190.144,95.065 190.262 C 94.905 190.361,94.769 191.240,94.762 192.214 C 94.754 193.189,94.587 194.365,94.390 194.827 L 94.032 195.667 93.645 193.968 C 93.270 192.327,91.814 189.549,91.328 189.549 C 91.198 189.549,91.008 189.287,90.906 188.967 C 90.805 188.647,90.409 188.073,90.028 187.692 C 89.646 187.310,89.334 186.799,89.334 186.556 C 89.334 186.312,89.214 186.113,89.067 186.113 C 88.920 186.113,88.710 185.829,88.600 185.482 C 88.490 185.135,88.241 184.693,88.048 184.499 C 87.063 183.514,85.199 178.397,84.620 175.089 C 83.333 167.740,84.290 162.469,87.725 157.982 C 88.509 156.958,89.695 157.044,90.825 158.206 C 91.955 159.370,92.277 159.344,92.728 158.051 C 93.004 157.259,92.985 157.212,92.499 157.472 C 92.099 157.686,91.927 157.647,91.799 157.314 C 91.705 157.070,91.499 156.952,91.341 157.050 C 91.182 157.148,91.052 157.073,91.052 156.885 C 91.052 155.298,88.838 155.482,87.108 157.212 M93.406 158.431 C 93.345 159.382,93.463 159.791,93.917 160.202 C 94.870 161.065,95.697 162.594,96.140 164.318 C 96.772 166.774,97.667 170.645,97.937 172.083 C 98.124 173.086,98.145 172.895,98.030 171.224 C 97.949 170.043,97.763 168.954,97.617 168.805 C 97.471 168.655,97.351 168.213,97.351 167.823 C 97.351 167.432,97.231 166.717,97.083 166.234 C 96.936 165.750,96.619 164.680,96.379 163.855 C 96.140 163.030,95.411 161.634,94.759 160.752 C 93.738 159.370,93.600 159.014,93.758 158.171 C 93.859 157.634,93.839 157.194,93.714 157.194 C 93.589 157.194,93.450 157.751,93.406 158.431 M98.263 175.144 C 98.234 176.119,98.112 176.977,97.992 177.052 C 97.872 177.126,97.737 178.299,97.691 179.659 C 97.611 182.004,97.376 183.000,95.745 187.896 C 95.498 188.640,95.353 189.413,95.424 189.614 C 95.495 189.814,95.696 189.528,95.870 188.976 C 96.045 188.425,96.573 186.879,97.044 185.540 C 97.656 183.799,97.903 182.561,97.912 181.188 C 97.919 180.133,98.060 178.635,98.227 177.859 C 98.393 177.083,98.481 175.756,98.423 174.910 L 98.316 173.372 98.263 175.144 M141.827 198.980 C 139.705 199.500,137.596 201.197,137.274 202.644 C 137.177 203.080,137.042 203.644,136.974 203.899 C 136.634 205.169,141.252 205.300,143.406 204.081 C 144.624 203.392,147.745 200.450,147.745 199.992 C 147.745 199.371,143.320 198.614,141.827 198.980 M146.434 199.824 L 147.271 200.166 145.899 201.560 C 141.998 205.520,135.631 205.829,138.001 201.943 C 139.410 199.632,143.473 198.611,146.434 199.824 M173.801 212.760 C 173.801 213.243,173.942 213.901,174.114 214.223 C 174.335 214.635,174.337 214.897,174.122 215.112 C 173.786 215.448,175.304 216.976,176.778 217.785 C 177.928 218.416,177.403 218.658,174.356 218.899 C 171.347 219.137,169.166 218.620,167.682 217.317 C 166.055 215.888,165.466 213.386,166.786 213.512 C 167.984 213.626,170.102 214.170,170.862 214.559 C 171.297 214.781,172.105 215.043,172.656 215.142 C 173.563 215.303,173.590 215.290,172.942 215.003 C 172.548 214.829,172.033 214.592,171.797 214.476 C 171.560 214.360,170.594 214.044,169.649 213.774 C 168.704 213.504,167.503 213.149,166.979 212.986 C 165.519 212.530,165.165 213.626,166.077 215.779 C 167.069 218.123,169.466 219.295,173.304 219.315 C 177.482 219.335,179.227 218.441,177.043 217.397 C 175.678 216.744,175.572 216.329,176.650 215.851 C 178.193 215.169,177.225 212.981,175.007 212.138 C 173.959 211.739,173.801 211.821,173.801 212.760 M175.337 213.335 C 176.241 214.046,176.299 214.615,175.510 215.037 C 174.999 215.311,174.879 215.228,174.508 214.340 C 173.784 212.606,174.030 212.307,175.337 213.335 M111.225 218.598 C 109.877 219.946,110.566 220.841,112.934 220.820 C 115.975 220.793,117.331 219.249,115.098 218.356 C 113.399 217.676,112.064 217.760,111.225 218.598 M114.683 218.597 C 116.478 219.346,115.791 220.070,113.015 220.355 L 111.095 220.552 111.095 219.805 C 111.095 218.454,112.893 217.848,114.683 218.597 M85.200 223.881 C 83.708 226.293,86.084 232.790,88.454 232.780 C 89.625 232.775,90.437 232.396,89.938 232.088 C 89.763 231.980,89.621 232.028,89.621 232.195 C 89.621 232.362,89.192 232.498,88.668 232.498 C 86.848 232.498,85.679 230.346,85.404 226.485 L 85.231 224.052 86.354 225.348 C 86.971 226.062,87.842 227.543,88.288 228.641 C 89.681 232.068,89.579 231.886,89.601 230.988 C 89.626 229.972,87.877 226.486,86.781 225.364 C 86.318 224.890,85.819 224.288,85.672 224.026 C 85.485 223.691,85.344 223.648,85.200 223.881 M146.334 226.734 C 146.065 227.236,146.091 228.517,146.490 234.359 C 146.824 239.253,149.393 243.992,152.362 245.191 C 153.303 245.571,155.883 245.644,156.227 245.300 C 156.416 245.111,155.473 242.265,155.155 242.069 C 155.017 241.983,154.901 241.631,154.899 241.286 C 154.894 240.484,154.376 239.053,153.403 237.148 C 152.979 236.319,152.486 235.096,152.307 234.430 C 151.919 232.989,151.305 232.081,149.143 229.748 C 148.223 228.756,147.437 227.610,147.325 227.099 C 147.101 226.079,146.753 225.950,146.334 226.734 M147.349 227.989 C 147.612 228.500,148.519 229.670,149.366 230.588 C 150.853 232.199,152.037 234.084,152.043 234.849 C 152.045 235.052,152.559 236.314,153.185 237.652 C 153.812 238.991,154.326 240.315,154.328 240.596 C 154.329 240.876,154.662 241.893,155.068 242.856 C 155.948 244.947,155.785 245.175,153.530 245.013 C 149.400 244.716,147.130 240.057,146.701 230.995 C 146.505 226.841,146.580 226.490,147.349 227.989 M125.189 229.222 C 124.839 229.467,124.552 229.821,124.551 230.009 C 124.550 230.197,124.364 230.705,124.138 231.138 C 123.777 231.830,123.780 231.926,124.158 231.926 C 125.859 231.926,129.505 234.828,130.940 237.325 L 131.457 238.225 129.579 238.225 C 125.871 238.225,121.710 234.364,123.070 232.186 C 123.350 231.739,123.334 231.639,122.980 231.639 C 121.839 231.639,122.641 234.684,124.212 236.316 C 126.023 238.199,131.120 239.698,131.826 238.556 C 132.364 237.686,128.838 233.639,126.443 232.378 L 125.040 231.639 126.780 231.639 C 127.945 231.639,128.662 231.497,128.950 231.210 C 129.186 230.974,129.504 230.780,129.655 230.780 C 130.110 230.780,130.327 229.842,129.931 229.587 C 128.639 228.756,126.130 228.562,125.189 229.222 M128.600 229.394 C 130.644 230.006,129.685 230.879,126.580 231.230 C 124.850 231.426,124.839 231.422,124.839 230.690 C 124.839 229.276,126.404 228.736,128.600 229.394 M187.947 236.251 C 187.647 236.582,187.434 236.904,187.473 236.966 C 187.799 237.481,187.489 237.929,186.991 237.662 C 186.291 237.288,186.113 237.289,186.113 237.669 C 186.113 237.836,186.238 237.895,186.390 237.801 C 186.542 237.707,186.820 237.875,187.008 238.175 C 187.424 238.843,188.404 238.665,188.404 237.922 C 188.404 237.635,188.535 237.319,188.695 237.220 C 188.855 237.121,188.920 236.934,188.840 236.804 C 188.356 236.020,190.957 237.218,192.036 238.275 C 196.936 243.076,197.828 254.054,193.923 261.511 C 193.690 261.956,193.430 263.086,193.345 264.022 C 193.175 265.897,192.847 265.797,192.151 263.657 C 191.963 263.078,191.089 261.532,190.208 260.221 C 189.328 258.911,188.355 257.194,188.046 256.407 C 187.114 254.035,186.919 253.576,186.508 252.783 C 186.291 252.365,186.111 251.528,186.109 250.922 C 186.106 250.317,185.979 249.628,185.827 249.392 C 185.619 249.070,185.548 249.222,185.545 249.993 C 185.540 251.216,185.913 252.506,186.989 254.975 C 187.194 255.447,187.512 256.236,187.694 256.728 C 187.876 257.219,188.706 258.655,189.539 259.917 C 190.372 261.180,191.392 263.019,191.805 264.005 C 192.992 266.838,194.216 267.095,193.917 264.448 C 193.819 263.573,193.954 262.886,194.404 261.970 C 197.549 255.566,198.033 248.413,195.713 242.615 C 193.690 237.562,189.711 234.301,187.947 236.251 M186.233 238.601 C 186.322 238.886,186.203 239.492,185.968 239.947 C 185.733 240.401,185.550 240.941,185.561 241.145 C 185.572 241.350,185.829 240.958,186.133 240.274 C 186.548 239.340,186.608 238.913,186.377 238.556 C 186.102 238.132,186.087 238.136,186.233 238.601 M104.653 238.985 C 104.338 239.052,103.822 239.162,103.508 239.231 C 101.972 239.565,100.647 241.467,101.279 242.432 C 102.408 244.154,106.810 242.618,107.485 240.268 C 107.868 238.931,106.926 238.504,104.653 238.985 M106.648 239.366 C 107.367 239.640,107.377 239.676,106.957 240.489 C 106.073 242.198,103.394 243.302,101.974 242.542 C 99.851 241.406,104.215 238.441,106.648 239.366 M185.305 244.381 C 185.309 245.956,185.407 247.566,185.524 247.960 C 185.642 248.354,185.683 247.194,185.616 245.383 C 185.461 241.192,185.298 240.665,185.305 244.381 " stroke="none" fill="#d7ecc4" fill-rule="evenodd"></path></g></svg>